<svg xmlns="http://www.w3.org/2000/svg" viewBox="0 0 39.76 12.2"><defs><style>.cls-1{fill:#fff;}</style></defs><g id="Layer_2" data-name="Layer 2"><g id="PRINT_1" data-name="PRINT 1"><path class="cls-1" d="M16.91,7.33H15.83v4a.54.54,0,0,1-.19.43.78.78,0,0,1-.3.18,1.59,1.59,0,0,1-.2.07l-.32.08a2.67,2.67,0,0,1-.4,0,1.26,1.26,0,0,1-.27,0,1.53,1.53,0,0,1-.29-.07,1,1,0,0,1-.39-.21.51.51,0,0,1-.2-.31,1.79,1.79,0,0,1,0-.23V.8A.67.67,0,0,1,13.4.34a.72.72,0,0,1,.45-.3l.2,0h3.73L18,0a1.27,1.27,0,0,1,.2,0,1.37,1.37,0,0,0,.19,0l.12,0,.11,0,.18,0,.19,0,.24.05a2.07,2.07,0,0,1,.33.1,3,3,0,0,1,.37.16,4.9,4.9,0,0,1,.48.31l.15.13s.09.06.12.1A5.9,5.9,0,0,1,21,1.5c.07.12.14.23.2.35a3.05,3.05,0,0,1,.17.51,1.19,1.19,0,0,0,.07.23.78.78,0,0,1,0,.16c0,.09,0,.19,0,.28a3.24,3.24,0,0,1,0,.44c0,.14,0,.29,0,.43s0,.13,0,.19a1.11,1.11,0,0,1,0,.19,1,1,0,0,0,0,.18,2.8,2.8,0,0,1-.15.62,2.13,2.13,0,0,1-.18.41c-.07.13-.15.25-.23.37a2.76,2.76,0,0,1-.43.47A3,3,0,0,1,20,6.7l-.28.15-.16.06c.07.12.13.25.19.37s.19.33.28.5.14.26.22.39.2.37.31.55A3.07,3.07,0,0,1,20.7,9c.06.12.14.24.2.37l.18.31a2.53,2.53,0,0,0,.2.36l.12.22.16.3a.42.42,0,0,1,.05.22V11a.65.65,0,0,1-.06.24,1.5,1.5,0,0,1-.42.55,2.28,2.28,0,0,1-.3.21,1.89,1.89,0,0,1-.41.18l-.17,0-.12,0H20a1,1,0,0,1-.34,0,.79.79,0,0,1-.47-.39c-.16-.31-.31-.63-.48-.94s-.25-.52-.39-.77-.26-.52-.41-.78-.26-.54-.41-.81-.27-.52-.4-.78ZM15.83,2.27V5.34H17.2a5.72,5.72,0,0,0,.59,0l.28-.06a1.21,1.21,0,0,0,.38-.18.72.72,0,0,0,.25-.24l.13-.23a1.74,1.74,0,0,0,.11-.55,1.08,1.08,0,0,0,0-.18,1.47,1.47,0,0,0,0-.21.5.5,0,0,0,0-.21.64.64,0,0,1,0-.2,1.71,1.71,0,0,0-.13-.38.91.91,0,0,0-.4-.4A1,1,0,0,0,18,2.34a.59.59,0,0,0-.19,0l-.21,0H15.83Z"/><path class="cls-1" d="M6.93,2.27V5.06h2.5a.6.6,0,0,1,.58.35,1.12,1.12,0,0,1,.11.25.58.58,0,0,1,0,.18.5.5,0,0,1,0,.12.57.57,0,0,1,0,.13,1.53,1.53,0,0,1-.11.47.91.91,0,0,1-.22.33A.5.5,0,0,1,9.6,7a.69.69,0,0,1-.25,0H6.94V9.86h4.43a.57.57,0,0,1,.43.17,1.13,1.13,0,0,1,.26.45.22.22,0,0,1,0,.12.38.38,0,0,0,0,.1,1.36,1.36,0,0,1,0,.45,1.61,1.61,0,0,1-.13.49,1.1,1.1,0,0,1-.2.31.5.5,0,0,1-.26.13.82.82,0,0,1-.22,0H5.44a1.46,1.46,0,0,1-.68-.17.47.47,0,0,1-.19-.12.64.64,0,0,1-.21-.49V.8A.61.61,0,0,1,4.58.31s.08,0,.12-.08A1.32,1.32,0,0,1,5.14.05a.83.83,0,0,1,.22,0h6.05a.54.54,0,0,1,.44.21.82.82,0,0,1,.12.2,2.19,2.19,0,0,1,.12.33,1.7,1.7,0,0,1,0,.22,1.93,1.93,0,0,1,0,.34,1.39,1.39,0,0,1-.24.68.61.61,0,0,1-.3.23.65.65,0,0,1-.2,0H6.93Z"/><path class="cls-1" d="M33.63,4.14l.1-.11c.08-.14.19-.26.28-.39a3.55,3.55,0,0,1,.23-.31l.33-.44.3-.4c.14-.2.29-.38.42-.59s.18-.21.26-.33.24-.31.35-.48a3.81,3.81,0,0,1,.24-.32l.25-.33L36.72,0h3l-.38.55L39.1.94l-.28.39a1.87,1.87,0,0,0-.2.29c-.08.12-.17.23-.25.34s-.29.41-.43.61a3.39,3.39,0,0,1-.27.39l-.38.52-.42.61-.2.28-.19.27c-.1.13-.18.27-.29.39s-.13.19-.2.29l-.24.34c-.09.15-.21.28-.3.44l-.07.07L39.76,12h-3a1,1,0,0,1-.18-.23l-.12-.15a4.54,4.54,0,0,1-.33-.41,1.34,1.34,0,0,0-.11-.14q-.18-.21-.33-.42a1.07,1.07,0,0,0-.14-.16l-.15-.2a1.3,1.3,0,0,1-.15-.2l-.12-.14c-.12-.14-.23-.28-.34-.43s-.16-.19-.24-.29-.14-.17-.2-.27a1.34,1.34,0,0,0-.11-.14,4.35,4.35,0,0,1-.33-.42.8.8,0,0,0-.15-.17s0-.1-.1-.12,0,0,0-.06a3.11,3.11,0,0,0,.23-.28l.23-.3.21-.26.24-.3a1.83,1.83,0,0,1,.21-.26c0-.07.09-.1.11-.16A1.58,1.58,0,0,1,35,6.33l.14-.16-.08-.06a2.69,2.69,0,0,0-.2-.27c-.07-.1-.15-.2-.22-.31s-.24-.32-.36-.48-.17-.21-.25-.33-.26-.36-.4-.53Z"/><path class="cls-1" d="M2.58,6.05V11.3a.61.61,0,0,1-.31.55A1.65,1.65,0,0,1,1.8,12l-.25,0a1.32,1.32,0,0,1-.44,0A2,2,0,0,1,.51,12a1.25,1.25,0,0,1-.28-.15A.53.53,0,0,1,0,11.47a1,1,0,0,1,0-.24V.78A.59.59,0,0,1,.22.31,1.48,1.48,0,0,1,.55.14L.73.09l.18,0a2.48,2.48,0,0,1,.27,0h.28a2.37,2.37,0,0,1,.66.17l.2.1a.54.54,0,0,1,.23.32.19.19,0,0,1,0,.07.28.28,0,0,1,0,.09Z"/><path class="cls-1" d="M25.45,6.06V11.3a.6.6,0,0,1-.29.54,1.87,1.87,0,0,1-.48.2l-.25,0a1.32,1.32,0,0,1-.44,0,2,2,0,0,1-.6-.14,1.87,1.87,0,0,1-.28-.16.51.51,0,0,1-.21-.31,1,1,0,0,1,0-.24V.79a.6.6,0,0,1,.19-.46,1.18,1.18,0,0,1,.29-.16,1.31,1.31,0,0,1,.21-.08l.23,0a2.48,2.48,0,0,1,.27,0h.27l.35.06A1.73,1.73,0,0,1,25,.19l.19.1a.62.62,0,0,1,.23.32.41.41,0,0,1,0,.16Z"/><path class="cls-1" d="M32.18,6.18,27.59,12H26L30.4,6.2s0-.1-.07-.14l-.22-.29c-.07-.1-.13-.21-.21-.31s-.12-.17-.19-.26l-.21-.3-.18-.26-.22-.3-.18-.26-.21-.3c-.06-.09-.13-.17-.18-.25s-.15-.22-.23-.32L28.15,3l-.24-.33c-.13-.19-.26-.38-.4-.56l-.39-.57L26.75,1l-.2-.29a4.15,4.15,0,0,1-.24-.34c-.08-.11-.15-.22-.23-.32A.16.16,0,0,1,26,0h1.55Z"/><path class="cls-1" d="M33.63,4.14v.05c.14.17.28.35.4.53s.18.22.25.33.25.32.36.48.15.21.22.31a2.69,2.69,0,0,1,.2.27l.08.06L35,6.33a1.58,1.58,0,0,0-.12.15c0,.06-.1.09-.11.16a1.83,1.83,0,0,0-.21.26l-.24.3-.21.26-.23.3a3.11,3.11,0,0,1-.23.28s0,0,0,.06l-.12.12c-.09.13-.2.25-.29.38a.88.88,0,0,1-.12.15,4.23,4.23,0,0,0-.32.42l-.12.14c-.11.14-.23.27-.33.42s-.09.11-.13.16a1.56,1.56,0,0,1-.16.2l-.15.2a1.34,1.34,0,0,1-.11.14,4.58,4.58,0,0,0-.34.43c-.08.1-.17.19-.24.29a1.71,1.71,0,0,0-.2.27l-.13.15-.31.39s0,0,0,0H29l.15-.2c.13-.18.27-.35.39-.53s.17-.22.25-.32.23-.3.34-.46.22-.27.32-.42l.31-.42.19-.24A5,5,0,0,0,31.26,9l.25-.32c.11-.15.24-.29.34-.45S32,8,32.1,7.86s.21-.28.31-.43l.19-.24L32.73,7,33,6.73l.26-.35.11-.15.06-.05-.06,0a1.88,1.88,0,0,0-.16-.23c-.08-.13-.18-.24-.26-.37l-.21-.29c-.12-.17-.24-.35-.37-.52s-.22-.34-.34-.5-.21-.29-.32-.44l-.4-.56c-.13-.19-.26-.38-.4-.56l-.36-.52-.2-.28a3.71,3.71,0,0,0-.23-.32c-.12-.17-.24-.35-.37-.52S29.56.8,29.48.69s-.19-.25-.29-.38L29,0h1.55C31.57,1.37,32.58,2.77,33.63,4.14Z"/><path class="cls-1" d="M33.32,6.13l.06,0-.06.05,0-.05Z"/></g></g></svg>