<svg xmlns="http://www.w3.org/2000/svg" viewBox="0 0 35 10.74"><defs><style>.cls-1{fill:#fff;}</style></defs><g id="Layer_2" data-name="Layer 2"><g id="PRINT_1" data-name="PRINT 1"><path class="cls-1" d="M14.89,6.45h-1v.1c0,1.14,0,2.28,0,3.42a.51.51,0,0,1-.17.39.79.79,0,0,1-.27.15l-.17.07-.28.06a2.08,2.08,0,0,1-.35,0,1,1,0,0,1-.25,0l-.25-.07a.84.84,0,0,1-.35-.18.47.47,0,0,1-.16-.27.71.71,0,0,1,0-.2V.7a.61.61,0,0,1,.12-.4.64.64,0,0,1,.4-.26l.18,0h3.28l.16,0A1.08,1.08,0,0,1,16,0a.5.5,0,0,0,.17,0l.1,0,.1,0,.15,0,.17,0,.21,0a2.46,2.46,0,0,1,.29.09,1.92,1.92,0,0,1,.33.14c.14.09.29.17.42.27l.14.12.1.08a4.23,4.23,0,0,1,.32.42c.06.11.13.2.18.31a3.81,3.81,0,0,1,.15.44,1.66,1.66,0,0,0,.06.21.59.59,0,0,1,0,.14c0,.08,0,.17,0,.25a2.44,2.44,0,0,1,0,.38c0,.13,0,.26,0,.39a.9.9,0,0,1,0,.16.49.49,0,0,1,0,.17.41.41,0,0,0,0,.16,3.58,3.58,0,0,1-.14.54,2,2,0,0,1-.16.37,3.45,3.45,0,0,1-.2.32,2.46,2.46,0,0,1-.38.41,2,2,0,0,1-.43.33L17.34,6l-.15.06.17.31c.09.15.17.3.25.45s.12.23.19.34.18.33.27.49a1.17,1.17,0,0,1,.15.27l.18.32.15.28a3.3,3.3,0,0,0,.18.32l.11.19c0,.09.1.17.14.26a.46.46,0,0,1,.05.2.57.57,0,0,0,0,.13.83.83,0,0,1-.06.21,1.24,1.24,0,0,1-.37.48,2.48,2.48,0,0,1-.26.19,1.2,1.2,0,0,1-.37.15.33.33,0,0,1-.15,0l-.1,0h-.1a.81.81,0,0,1-.31-.05.69.69,0,0,1-.41-.34c-.14-.27-.27-.55-.42-.83s-.22-.45-.35-.67l-.35-.69c-.13-.23-.24-.48-.37-.71l-.35-.69ZM13.94,2V4.7h1.21a4.35,4.35,0,0,0,.51,0l.25,0a1.17,1.17,0,0,0,.34-.16.87.87,0,0,0,.22-.21l.1-.2a2,2,0,0,0,.11-.49V3.23a.65.65,0,0,0,0-.19.88.88,0,0,1,0-.17.93.93,0,0,0-.12-.33.68.68,0,0,0-.35-.36.93.93,0,0,0-.33-.12.53.53,0,0,0-.17,0l-.19,0H13.94Z"/><path class="cls-1" d="M6.1,2V4.45H8.3a.53.53,0,0,1,.51.31.88.88,0,0,1,.1.22.75.75,0,0,1,0,.16.43.43,0,0,0,0,.11v.11a1.17,1.17,0,0,1-.1.41.73.73,0,0,1-.19.3.45.45,0,0,1-.23.11.53.53,0,0,1-.22,0H6.11V8.68H10a.54.54,0,0,1,.38.15,1,1,0,0,1,.23.39.43.43,0,0,1,0,.11.29.29,0,0,0,0,.09,1.28,1.28,0,0,1,0,.39,1.14,1.14,0,0,1-.11.44.83.83,0,0,1-.17.27.63.63,0,0,1-.23.12.68.68,0,0,1-.2,0H4.79a1.4,1.4,0,0,1-.6-.15A1,1,0,0,1,4,10.4.59.59,0,0,1,3.83,10V.7A.55.55,0,0,1,4,.27L4.13.2A1.46,1.46,0,0,1,4.52,0l.2,0h5.33a.46.46,0,0,1,.38.18.67.67,0,0,1,.11.18,1.66,1.66,0,0,1,.1.29,1.29,1.29,0,0,1,0,.19c0,.1,0,.2,0,.3a1.24,1.24,0,0,1-.21.6A.62.62,0,0,1,10.2,2,.86.86,0,0,1,10,2H6.1Z"/><path class="cls-1" d="M29.6,3.65l.09-.1c.07-.12.17-.23.25-.34a2.83,2.83,0,0,1,.2-.28l.29-.39c.09-.11.18-.23.26-.35s.27-.34.38-.51.15-.19.22-.29.22-.28.31-.43a3,3,0,0,1,.22-.28L32,.38c.1-.12.2-.25.29-.38H35c-.11.17-.22.33-.34.49l-.24.34c-.08.11-.16.23-.25.34s-.11.17-.17.26l-.22.3c-.12.18-.25.35-.38.53s-.15.24-.24.35l-.33.46c-.13.17-.25.35-.37.53l-.18.25-.17.24c-.08.11-.16.23-.25.34l-.17.25c-.07.1-.15.2-.21.3s-.2.25-.28.39,0,0-.06.06L35,10.54H32.33a1,1,0,0,1-.16-.19l-.1-.14c-.1-.12-.2-.23-.29-.36a1.27,1.27,0,0,0-.1-.12c-.1-.13-.2-.25-.29-.38l-.12-.14a2.09,2.09,0,0,0-.14-.17A1.18,1.18,0,0,1,31,8.87l-.1-.12c-.1-.12-.21-.25-.3-.38a2.52,2.52,0,0,0-.21-.25,2.15,2.15,0,0,1-.18-.24.38.38,0,0,0-.1-.12c-.1-.13-.2-.24-.29-.38a.81.81,0,0,0-.12-.14s0-.09-.1-.11a.08.08,0,0,1,0,0,2.43,2.43,0,0,0,.2-.25L30,6.57l.19-.24c.07-.08.13-.17.2-.26s.11-.16.19-.23.07-.08.1-.13a.64.64,0,0,1,.1-.13l.12-.15s-.05,0-.06-.06l-.18-.23-.2-.27c-.1-.15-.21-.28-.31-.42L30,4.16c-.11-.17-.23-.32-.35-.48C29.6,3.68,29.6,3.66,29.6,3.65Z"/><path class="cls-1" d="M2.27,5.33V10a.53.53,0,0,1-.27.48,1.86,1.86,0,0,1-.41.17l-.22,0a1.35,1.35,0,0,1-.4,0,2,2,0,0,1-.52-.13.77.77,0,0,1-.25-.14A.46.46,0,0,1,0,10.1a.78.78,0,0,1,0-.22V.69A.52.52,0,0,1,.19.27,1.05,1.05,0,0,1,.49.12l.16,0L.8,0A1,1,0,0,1,1,0h.25a1.89,1.89,0,0,1,.58.14L2,.25a.51.51,0,0,1,.21.29.14.14,0,0,0,0,.06V5.33Z"/><path class="cls-1" d="M22.41,5.34v4.6a.52.52,0,0,1-.26.48,1.44,1.44,0,0,1-.42.18l-.22,0a1.28,1.28,0,0,1-.39,0,1.65,1.65,0,0,1-.53-.13,1.19,1.19,0,0,1-.25-.13.49.49,0,0,1-.18-.28.65.65,0,0,1,0-.2V.69a.52.52,0,0,1,.17-.4,1.23,1.23,0,0,1,.25-.14l.19-.07L21,0l.24,0h.24c.1,0,.2,0,.3.05L22,.16l.16.1a.51.51,0,0,1,.21.27.77.77,0,0,1,0,.15Z"/><path class="cls-1" d="M28.33,5.44l-4,5.11H22.92l3.84-5.09s0-.09-.06-.13-.13-.16-.19-.25l-.19-.27-.16-.23L26,4.31l-.16-.23-.19-.26-.16-.23-.19-.26-.16-.23c-.06-.09-.12-.19-.19-.28l-.14-.19-.21-.29c-.11-.17-.23-.33-.35-.5l-.35-.49L23.55.9,23.37.64,23.16.35A3.06,3.06,0,0,0,23,.06l0-.06h1.37Z"/><path class="cls-1" d="M29.6,3.65s0,0,0,0c.12.16.24.31.35.48l.22.29c.1.14.21.27.31.42l.2.27.18.23s0,0,.06.06l-.12.15a.64.64,0,0,0-.1.13s-.09.07-.1.13-.12.16-.19.23-.13.18-.2.26L30,6.57l-.21.26a2.43,2.43,0,0,1-.2.25.08.08,0,0,0,0,0l-.1.11c-.08.12-.18.21-.25.34a1.5,1.5,0,0,0-.11.13c-.1.12-.2.23-.29.36a.38.38,0,0,1-.1.12c-.1.13-.2.25-.29.38s-.08.09-.11.14-.09.12-.14.17a1.24,1.24,0,0,0-.14.18.53.53,0,0,1-.1.12l-.3.38c-.06.09-.14.17-.2.25a2.15,2.15,0,0,0-.18.24,1.49,1.49,0,0,1-.12.14l-.27.34v0H25.52l.13-.18c.12-.16.24-.31.35-.47a3,3,0,0,1,.22-.28l.3-.4c.08-.13.19-.24.28-.37l.27-.37.17-.21c.09-.13.19-.25.28-.39s.15-.18.22-.28.21-.26.3-.4.15-.18.21-.28a4.61,4.61,0,0,0,.28-.38l.17-.21.11-.15c.06-.09.13-.17.2-.26l.22-.3.1-.14.05,0-.05,0a1,1,0,0,0-.14-.21C29.12,5.08,29,5,29,4.87l-.18-.26c-.11-.15-.21-.31-.33-.45s-.19-.3-.3-.44l-.28-.39-.35-.5-.35-.49-.32-.45-.17-.25-.21-.29L26.15.9C26.07.81,26,.7,26,.61S25.78.39,25.7.27,25.58.1,25.52,0h1.36C27.79,1.21,28.68,2.44,29.6,3.65Z"/><path class="cls-1" d="M29.33,5.4l.05,0-.05,0,0,0Z"/></g></g></svg>