<?xml version="1.0" encoding="utf-8"?>
<!-- Generator: Adobe Illustrator 25.2.0, SVG Export Plug-In . SVG Version: 6.00 Build 0)  -->
<svg version="1.1" id="Layer_1" xmlns="http://www.w3.org/2000/svg" xmlns:xlink="http://www.w3.org/1999/xlink" x="0px" y="0px"
	 viewBox="0 0 69.28 19.85" style="enable-background:new 0 0 69.28 19.85;" xml:space="preserve">
<style type="text/css">
	.st0{fill:#FFFFFF;}
	.st1{font-family:'Poppins-SemiBold';}
	.st2{font-size:3.0697px;}
	.st3{fill:#488BCA;}
</style>
<g>
	<text transform="matrix(1 0 0 1 23.7982 18.0262)" class="st0 st1 st2">imagination meets xecution  </text>
	<path class="st3" d="M18.01,11.31c-0.05,0-0.09,0-0.14,0c-2.94,0-5.88,0-8.82,0c-0.06,0-0.11,0-0.17-0.02
		c-0.05-0.02-0.1,0.01-0.16-0.02c-0.05-0.03-0.12-0.01-0.18-0.03c-0.1-0.03-0.2-0.06-0.3-0.1c-0.07-0.02-0.14-0.05-0.21-0.09
		c-0.17-0.09-0.33-0.2-0.47-0.33c-0.13-0.13-0.25-0.27-0.35-0.42c-0.09-0.15-0.18-0.31-0.24-0.48C6.94,9.71,6.91,9.59,6.87,9.48
		C6.85,9.43,6.84,9.37,6.83,9.32C6.82,9.28,6.81,9.24,6.8,9.2C6.8,9.16,6.82,9.11,6.78,9.08c0,0,0-0.02,0-0.03
		c0-0.17-0.04-0.34-0.03-0.5c0-0.02,0-0.04,0-0.07c-0.4,0-0.8,0-1.21,0c0,0.04,0,0.09,0,0.14c0,0.05,0,0.1,0,0.15s-0.01,0.11,0,0.15
		C5.58,9.02,5.57,9.1,5.56,9.18c0,0.05,0.02,0.09,0.03,0.14C5.6,9.38,5.58,9.42,5.61,9.47c0.02,0.04,0.02,0.11,0.03,0.17
		C5.67,9.82,5.72,10,5.77,10.18C5.83,10.37,5.9,10.55,6,10.73c0.09,0.17,0.2,0.34,0.32,0.5c0.09,0.11,0.17,0.23,0.27,0.32
		c0.16,0.15,0.33,0.28,0.52,0.4c0.09,0.06,0.18,0.11,0.27,0.15c0.15,0.08,0.32,0.14,0.48,0.21c0.1,0.04,0.22,0.05,0.32,0.1
		c0.04,0.02,0.1-0.01,0.14,0.03c0.14,0,0.29,0.04,0.43,0.06c0.16,0.02,0.32,0.01,0.48,0.02c0.16,0,0.33,0,0.49,0
		c2.72,0,5.44,0,8.15,0c0.04,0,0.08,0,0.14,0c0,0.05,0,0.09,0,0.13c0,1.1,0,2.21,0,3.31c0,0.06,0.02,0.12-0.02,0.17
		c-0.03,0.05,0.02,0.12-0.03,0.17c0,0.11-0.04,0.21-0.08,0.32c-0.05,0.13-0.1,0.25-0.17,0.37c-0.12,0.21-0.27,0.39-0.45,0.55
		c-0.15,0.14-0.32,0.26-0.52,0.34c-0.15,0.06-0.31,0.13-0.48,0.15c-0.05,0.01-0.11,0.01-0.16,0.02c-0.05,0.02-0.1,0.02-0.16,0.02
		c-0.06,0-0.11,0-0.17,0c-4.56,0-9.13,0-13.69,0c-0.06,0-0.11,0.01-0.17-0.02c-0.04-0.02-0.11,0.02-0.15-0.03
		c-0.11,0-0.2-0.04-0.3-0.07c-0.07-0.02-0.13-0.05-0.2-0.08c-0.07-0.02-0.13-0.07-0.19-0.1C1,17.73,0.95,17.69,0.9,17.65
		c-0.15-0.12-0.3-0.24-0.41-0.4C0.39,17.12,0.3,17,0.23,16.86c-0.08-0.17-0.15-0.35-0.18-0.54c-0.01-0.05-0.01-0.11-0.03-0.16
		C0,16.11,0,16.05,0,16c0-0.06,0-0.11,0-0.17c0-3.03,0-6.06,0-9.1c0.03,0,0.06,0,0.1,0c3.01,0,6.03,0,9.04,0
		c0.1,0,0.21,0.03,0.31,0.04c0.15,0.02,0.29,0.07,0.43,0.12c0.15,0.05,0.28,0.12,0.42,0.21c0.17,0.11,0.31,0.24,0.44,0.39
		c0.13,0.16,0.25,0.33,0.33,0.52c0.09,0.2,0.17,0.4,0.21,0.62c0.02,0.09,0.04,0.18,0.05,0.27c0.01,0.07,0.01,0.14,0.02,0.21
		c0.02,0.07,0.02,0.15,0.02,0.22c0,0.07,0,0.15,0,0.22c0.4,0,0.8,0,1.21,0c0-0.03,0-0.06,0-0.09c0.02-0.21-0.02-0.42-0.03-0.63
		c0-0.06-0.02-0.13-0.02-0.2c-0.01-0.06-0.01-0.13-0.03-0.18c-0.02-0.06-0.01-0.12-0.04-0.18c-0.03-0.04-0.02-0.11-0.03-0.17
		c-0.01-0.05-0.04-0.1-0.05-0.15c-0.01-0.05-0.05-0.09-0.03-0.14c-0.06-0.06-0.06-0.15-0.09-0.22c-0.09-0.19-0.17-0.38-0.29-0.55
		c-0.09-0.13-0.17-0.26-0.28-0.37c-0.06-0.07-0.11-0.14-0.17-0.2c-0.06-0.06-0.12-0.1-0.18-0.16c-0.06-0.05-0.13-0.09-0.19-0.14
		c-0.14-0.11-0.29-0.2-0.45-0.28c-0.17-0.09-0.35-0.15-0.53-0.21c-0.14-0.04-0.27-0.09-0.42-0.1C9.71,5.55,9.64,5.59,9.59,5.56
		c-0.06-0.03-0.12,0-0.17-0.02C9.25,5.5,9.08,5.52,8.91,5.52c-0.17,0-0.33,0-0.5,0c-2.76,0-5.51,0-8.27,0c-0.04,0-0.08,0-0.14,0
		c0-0.05,0-0.09,0-0.13c0-1.1,0-2.2,0-3.3c0-0.06-0.01-0.11,0.02-0.17c0.02-0.04-0.02-0.11,0.03-0.15c0-0.12,0.04-0.22,0.08-0.33
		c0.05-0.12,0.1-0.24,0.17-0.36c0.12-0.21,0.27-0.39,0.45-0.54c0.14-0.12,0.29-0.23,0.45-0.3C1.35,0.16,1.5,0.1,1.66,0.06
		c0.07-0.02,0.15-0.02,0.22-0.03C2.12-0.02,2.37,0.01,2.62,0c0.24,0,0.49,0,0.73,0C3.6,0,3.85,0,4.1,0c3.94,0,7.88,0,11.82,0
		c0.25,0,0.49,0.05,0.72,0.15c0.05,0.02,0.11,0.05,0.16,0.07c0.05,0.03,0.11,0.05,0.16,0.08c0.06,0.03,0.11,0.07,0.16,0.11
		c0.18,0.15,0.35,0.3,0.48,0.49c0.07,0.11,0.15,0.21,0.2,0.33c0.07,0.16,0.14,0.32,0.16,0.5c0.01,0.05,0.01,0.11,0.02,0.16
		c0.02,0.06,0.02,0.11,0.02,0.17c0,0.06,0,0.11,0,0.17C18.01,5.26,18.01,8.28,18.01,11.31z M9.08,10.18
		c0.27,0.01,0.54-0.12,0.76-0.33c0.2-0.2,0.31-0.45,0.33-0.74c0.02-0.34-0.1-0.63-0.33-0.87C9.64,8.04,9.39,7.92,9.1,7.91
		C8.76,7.9,8.48,8.01,8.24,8.24c-0.21,0.2-0.32,0.45-0.33,0.75C7.89,9.32,8,9.61,8.23,9.84C8.45,10.06,8.72,10.18,9.08,10.18z"/>
	<path class="st0" d="M42.59,8.15c-0.39,0-0.79,0-1.19,0c0,0.04,0,0.08,0,0.13c0,1.43,0,2.85,0,4.28c0,0.19-0.07,0.35-0.21,0.48
		c-0.1,0.08-0.2,0.16-0.33,0.2c-0.07,0.02-0.14,0.06-0.21,0.08c-0.12,0.03-0.23,0.06-0.35,0.08c-0.15,0.03-0.29,0.02-0.44,0.02
		c-0.1,0-0.2-0.03-0.3-0.05c-0.11-0.02-0.21-0.05-0.32-0.08c-0.16-0.05-0.31-0.12-0.43-0.22c-0.11-0.09-0.18-0.2-0.21-0.35
		c-0.02-0.08-0.02-0.16-0.02-0.25c0-3.83,0-7.66,0-11.49c0-0.18,0.03-0.34,0.16-0.5c0.13-0.17,0.28-0.29,0.5-0.33
		c0.07-0.01,0.15-0.02,0.22-0.02c1.37,0,2.73,0,4.1,0c0.07,0,0.14,0.02,0.21,0.02c0.07,0,0.15-0.01,0.22,0.01
		c0.07,0.02,0.14,0.02,0.21,0.02c0.04,0,0.09,0.02,0.13,0.02c0.04,0.01,0.08,0.01,0.12,0.02c0.06,0.02,0.13,0.02,0.19,0.03
		c0.07,0.01,0.14,0.03,0.21,0.05c0.09,0.02,0.17,0.04,0.26,0.06c0.13,0.02,0.25,0.07,0.37,0.11c0.14,0.05,0.28,0.1,0.4,0.17
		c0.18,0.11,0.37,0.21,0.53,0.34c0.06,0.05,0.11,0.1,0.17,0.15c0.04,0.04,0.09,0.06,0.12,0.1c0.14,0.17,0.29,0.33,0.41,0.53
		c0.07,0.13,0.16,0.25,0.22,0.39c0.08,0.18,0.14,0.36,0.19,0.55c0.02,0.08,0.04,0.17,0.07,0.25c0.02,0.05,0.01,0.12,0.03,0.18
		c0.02,0.1,0.01,0.21,0.03,0.31c0.04,0.16,0.02,0.32,0.02,0.48c0,0.16,0,0.32,0,0.48c0,0.07-0.02,0.14-0.03,0.21
		c-0.01,0.07,0.01,0.14-0.02,0.21c-0.02,0.06-0.02,0.13-0.03,0.19c-0.03,0.23-0.1,0.46-0.17,0.68c-0.05,0.16-0.11,0.31-0.19,0.46
		c-0.08,0.14-0.17,0.28-0.26,0.41c-0.13,0.19-0.29,0.36-0.47,0.51c-0.17,0.15-0.34,0.29-0.54,0.4c-0.1,0.06-0.2,0.11-0.31,0.16
		c-0.06,0.03-0.12,0.05-0.18,0.07c0.07,0.13,0.14,0.27,0.21,0.4c0.1,0.18,0.21,0.37,0.3,0.56c0.08,0.14,0.16,0.29,0.24,0.43
		c0.12,0.2,0.22,0.41,0.34,0.61c0.07,0.11,0.13,0.22,0.19,0.33c0.07,0.14,0.15,0.27,0.23,0.41c0.06,0.12,0.12,0.23,0.19,0.35
		c0.08,0.13,0.14,0.27,0.22,0.4c0.05,0.08,0.09,0.16,0.13,0.24c0.06,0.11,0.12,0.21,0.18,0.32c0.04,0.08,0.07,0.16,0.06,0.25
		c0,0.06,0,0.11,0,0.17c0,0.09-0.03,0.17-0.07,0.26c-0.1,0.24-0.27,0.44-0.46,0.61c-0.1,0.09-0.22,0.16-0.33,0.23
		c-0.14,0.09-0.3,0.15-0.46,0.2c-0.06,0.02-0.12,0.04-0.19,0.04c-0.04,0-0.09,0.02-0.13,0.02c-0.04,0-0.09,0-0.13,0
		c-0.13,0.01-0.26-0.02-0.38-0.06c-0.22-0.07-0.4-0.21-0.51-0.42c-0.18-0.35-0.35-0.7-0.53-1.04c-0.15-0.28-0.28-0.57-0.43-0.84
		c-0.16-0.28-0.29-0.58-0.44-0.86c-0.16-0.29-0.3-0.6-0.46-0.89c-0.16-0.28-0.29-0.58-0.44-0.86C42.73,8.4,42.66,8.28,42.59,8.15z
		 M41.4,2.58c0,1.13,0,2.25,0,3.37c0.07,0,0.13,0,0.2,0c0.22,0,0.44,0,0.66,0c0.22,0,0.44,0,0.66,0c0.22,0,0.43,0.02,0.65-0.02
		c0.1-0.02,0.21-0.04,0.31-0.07c0.15-0.04,0.29-0.11,0.42-0.19c0.11-0.07,0.21-0.15,0.27-0.26c0.05-0.08,0.09-0.17,0.13-0.25
		c0.09-0.19,0.1-0.4,0.13-0.6c0.01-0.06,0-0.13,0-0.19c0-0.08,0-0.15,0-0.23c-0.01-0.08,0.02-0.16-0.02-0.24
		c-0.03-0.07-0.01-0.14-0.03-0.22c-0.03-0.15-0.08-0.28-0.14-0.42c-0.1-0.2-0.25-0.34-0.44-0.44c-0.13-0.07-0.26-0.13-0.41-0.16
		c-0.07-0.01-0.14-0.05-0.21-0.05c-0.08,0-0.15-0.03-0.23-0.03c-0.58,0-1.16,0-1.74,0C41.53,2.58,41.47,2.58,41.4,2.58z"/>
	<path class="st0" d="M31.61,2.58c0,1.03,0,2.04,0,3.07c0.04,0,0.09,0,0.13,0c0.87,0,1.74,0,2.61,0c0.29,0,0.51,0.13,0.64,0.39
		c0.04,0.09,0.1,0.17,0.12,0.27c0.01,0.07,0.04,0.13,0.05,0.2c0,0.04,0.02,0.09,0.02,0.13c0,0.05,0,0.09,0,0.14
		c0,0.18-0.05,0.35-0.12,0.52c-0.05,0.14-0.13,0.26-0.24,0.37c-0.08,0.08-0.18,0.11-0.29,0.15c-0.09,0.03-0.18,0.02-0.27,0.02
		c-0.88,0-1.77,0-2.66,0c0,1.03,0,2.06,0,3.09c0.04,0,0.09,0,0.13,0c1.58,0,3.17,0,4.75,0c0.18,0,0.34,0.06,0.47,0.19
		c0.14,0.14,0.22,0.31,0.28,0.49c0.01,0.04,0.03,0.08,0.03,0.13c0,0.04,0.02,0.08,0.03,0.12c0.04,0.16,0.03,0.33,0.02,0.49
		c-0.01,0.19-0.06,0.37-0.14,0.55c-0.06,0.12-0.11,0.24-0.21,0.34c-0.08,0.08-0.18,0.12-0.29,0.15c-0.08,0.02-0.16,0.02-0.25,0.02
		c-2.16,0-4.31,0-6.47,0c-0.27,0-0.51-0.07-0.75-0.19c-0.07-0.04-0.15-0.07-0.21-0.14c-0.15-0.15-0.23-0.32-0.23-0.54
		c0-3.86,0-7.72,0-11.58c0-0.22,0.08-0.4,0.24-0.54c0.04-0.03,0.09-0.05,0.13-0.08c0.15-0.1,0.32-0.15,0.48-0.2
		c0.08-0.02,0.16-0.03,0.25-0.03c2.22,0,4.44,0,6.66,0c0.19,0,0.36,0.07,0.48,0.23c0.05,0.07,0.1,0.14,0.13,0.23
		c0.05,0.12,0.1,0.23,0.13,0.36C37.3,1,37.32,1.08,37.33,1.16c0.01,0.12,0.01,0.25,0,0.37c-0.03,0.27-0.1,0.53-0.26,0.75
		c-0.08,0.11-0.19,0.21-0.33,0.26c-0.07,0.02-0.14,0.04-0.22,0.04c-0.85,0-1.7,0-2.55,0C33.19,2.58,32.4,2.58,31.61,2.58z"/>
	<path class="st0" d="M60.98,4.64c0.04-0.04,0.08-0.08,0.11-0.13c0.09-0.15,0.21-0.28,0.31-0.43c0.08-0.12,0.17-0.23,0.26-0.35
		c0.12-0.16,0.24-0.32,0.36-0.48c0.11-0.15,0.22-0.3,0.33-0.44c0.16-0.21,0.33-0.42,0.47-0.64c0.08-0.13,0.19-0.24,0.28-0.36
		c0.12-0.18,0.27-0.35,0.39-0.53c0.08-0.13,0.18-0.23,0.27-0.35c0.09-0.12,0.18-0.24,0.27-0.37c0.12-0.16,0.24-0.32,0.36-0.48
		c1.12,0,2.23,0,3.35,0c-0.14,0.21-0.27,0.41-0.42,0.61c-0.1,0.14-0.2,0.29-0.3,0.43c-0.1,0.14-0.2,0.29-0.31,0.43
		c-0.08,0.1-0.15,0.21-0.22,0.32c-0.09,0.13-0.19,0.25-0.27,0.38c-0.15,0.23-0.31,0.44-0.47,0.67c-0.1,0.14-0.19,0.29-0.3,0.43
		c-0.15,0.19-0.28,0.39-0.41,0.58c-0.16,0.22-0.31,0.44-0.47,0.67c-0.07,0.1-0.15,0.21-0.22,0.31c-0.07,0.1-0.13,0.2-0.21,0.3
		c-0.11,0.14-0.2,0.29-0.31,0.43c-0.08,0.1-0.15,0.21-0.22,0.32C63.5,6.06,63.4,6.18,63.32,6.3c-0.11,0.17-0.24,0.32-0.34,0.49
		c-0.02,0.03-0.05,0.05-0.08,0.08c1.61,2.13,3.22,4.26,4.82,6.38c0,0,0,0-0.01,0.01c0,0-0.01,0-0.01,0c-1.1,0-2.21,0-3.31,0
		c-0.08-0.07-0.14-0.15-0.2-0.25c-0.04-0.06-0.09-0.11-0.13-0.16c-0.12-0.15-0.25-0.29-0.36-0.46c-0.04-0.06-0.08-0.1-0.13-0.15
		c-0.13-0.15-0.26-0.3-0.37-0.47c-0.04-0.06-0.1-0.11-0.14-0.17c-0.06-0.07-0.11-0.15-0.17-0.22c-0.06-0.07-0.12-0.14-0.16-0.22
		c-0.03-0.06-0.08-0.1-0.13-0.15c-0.13-0.15-0.26-0.31-0.38-0.48c-0.08-0.11-0.18-0.21-0.26-0.32c-0.07-0.1-0.16-0.19-0.22-0.29
		c-0.03-0.06-0.08-0.1-0.13-0.15c-0.13-0.15-0.26-0.3-0.37-0.47c-0.04-0.07-0.1-0.13-0.15-0.18c-0.04-0.04-0.05-0.12-0.12-0.14
		c0-0.03,0.01-0.05,0.03-0.07c0.1-0.09,0.17-0.21,0.25-0.31c0.09-0.11,0.17-0.22,0.26-0.33c0.08-0.1,0.15-0.2,0.23-0.29
		c0.09-0.11,0.17-0.22,0.26-0.33c0.08-0.1,0.14-0.21,0.23-0.29c0.01-0.07,0.09-0.1,0.12-0.17c0.03-0.06,0.09-0.11,0.13-0.16
		c0.05-0.06,0.09-0.11,0.15-0.18c-0.03-0.02-0.06-0.04-0.08-0.07c-0.07-0.1-0.14-0.2-0.22-0.29c-0.08-0.11-0.17-0.22-0.25-0.33
		c-0.12-0.18-0.26-0.35-0.39-0.53c-0.09-0.13-0.19-0.23-0.28-0.36c-0.14-0.2-0.29-0.4-0.44-0.59C60.98,4.68,60.98,4.66,60.98,4.64z"
		/>
	<path class="st0" d="M26.82,6.74c0,1.92,0,3.85,0,5.77c0,0.26-0.11,0.46-0.33,0.6c-0.16,0.1-0.33,0.16-0.52,0.21
		c-0.09,0.02-0.18,0.03-0.27,0.05c-0.17,0.04-0.33,0.03-0.49,0.02c-0.22-0.02-0.44-0.07-0.65-0.16c-0.11-0.05-0.22-0.1-0.31-0.17
		c-0.12-0.08-0.19-0.21-0.23-0.35c-0.02-0.09-0.02-0.18-0.02-0.27c0-3.83,0-7.66,0-11.49c0-0.21,0.07-0.39,0.24-0.52
		c0.11-0.09,0.24-0.14,0.37-0.19c0.06-0.02,0.13-0.03,0.2-0.05c0.06-0.03,0.13-0.03,0.2-0.05c0.1-0.03,0.2-0.02,0.3-0.03
		c0.1,0,0.21-0.01,0.31,0c0.25,0.03,0.5,0.07,0.72,0.18c0.07,0.03,0.14,0.07,0.21,0.11c0.14,0.08,0.21,0.21,0.26,0.36
		c0.01,0.03,0.02,0.05,0.02,0.08c0,0.03,0,0.07,0,0.1C26.82,2.87,26.82,4.81,26.82,6.74z"/>
	<path class="st0" d="M51.99,6.75c0,1.92,0,3.84,0,5.76c0,0.26-0.1,0.46-0.32,0.6c-0.13,0.09-0.37,0.18-0.53,0.21
		c-0.09,0.02-0.18,0.03-0.27,0.05c-0.17,0.04-0.33,0.03-0.49,0.02c-0.22-0.02-0.44-0.07-0.65-0.16c-0.11-0.05-0.22-0.1-0.31-0.17
		c-0.11-0.08-0.19-0.2-0.23-0.34c-0.02-0.08-0.03-0.17-0.03-0.26c0-3.84,0-7.68,0-11.51c0-0.2,0.07-0.37,0.22-0.5
		c0.09-0.08,0.2-0.13,0.31-0.18c0.07-0.03,0.16-0.05,0.24-0.08c0.08-0.03,0.17-0.04,0.25-0.05c0.1-0.02,0.2-0.02,0.3-0.03
		c0.1,0,0.2-0.01,0.3,0c0.13,0.02,0.26,0.03,0.38,0.06c0.12,0.03,0.24,0.06,0.35,0.11c0.07,0.03,0.14,0.07,0.21,0.11
		c0.14,0.08,0.2,0.21,0.25,0.35c0.02,0.06,0.03,0.12,0.03,0.18C51.99,2.87,51.99,4.81,51.99,6.75z"/>
	<path class="st0" d="M59.39,6.88c-1.69,2.13-3.37,4.25-5.05,6.38c-0.56,0-1.13,0-1.71,0c1.6-2.12,3.2-4.23,4.8-6.36
		c0.02-0.06-0.04-0.11-0.07-0.16c-0.07-0.11-0.16-0.21-0.23-0.32c-0.08-0.11-0.15-0.23-0.24-0.34C56.81,6,56.74,5.9,56.67,5.8
		c-0.08-0.11-0.16-0.22-0.23-0.33c-0.07-0.1-0.14-0.19-0.2-0.29C56.16,5.08,56.08,4.97,56,4.86c-0.07-0.1-0.14-0.19-0.2-0.29
		c-0.08-0.11-0.15-0.22-0.23-0.33c-0.07-0.09-0.13-0.18-0.2-0.28c-0.08-0.12-0.16-0.24-0.24-0.35c-0.06-0.08-0.11-0.16-0.17-0.24
		C54.87,3.25,54.78,3.13,54.69,3c-0.15-0.21-0.29-0.41-0.44-0.62c-0.15-0.21-0.29-0.41-0.44-0.62c-0.13-0.19-0.27-0.38-0.41-0.57
		c-0.08-0.1-0.15-0.21-0.22-0.32c-0.09-0.12-0.18-0.24-0.26-0.37c-0.08-0.12-0.16-0.24-0.26-0.36c-0.02-0.02-0.02-0.05-0.04-0.07
		c0.57,0,1.13,0,1.7,0C56.01,2.34,57.7,4.61,59.39,6.88z"/>
	<path class="st0" d="M60.98,4.64c0,0.02,0,0.04,0.01,0.05c0.15,0.19,0.3,0.39,0.44,0.59c0.08,0.13,0.19,0.24,0.28,0.36
		c0.12,0.18,0.27,0.35,0.39,0.53c0.08,0.11,0.17,0.22,0.25,0.33c0.07,0.1,0.15,0.19,0.22,0.29c0.02,0.03,0.05,0.04,0.08,0.07
		c-0.06,0.07-0.1,0.13-0.15,0.18c-0.04,0.05-0.1,0.1-0.13,0.16c-0.03,0.07-0.11,0.09-0.12,0.17c-0.1,0.08-0.16,0.19-0.23,0.29
		C61.92,7.78,61.83,7.89,61.74,8c-0.08,0.1-0.15,0.2-0.23,0.29c-0.09,0.11-0.17,0.22-0.26,0.33C61.17,8.72,61.1,8.84,61,8.93
		c-0.02,0.02-0.03,0.04-0.03,0.07c-0.04,0.04-0.09,0.09-0.12,0.14c-0.1,0.14-0.23,0.27-0.32,0.42c-0.04,0.06-0.09,0.11-0.13,0.16
		c-0.12,0.15-0.25,0.29-0.36,0.46c-0.04,0.06-0.08,0.1-0.13,0.15c-0.13,0.15-0.26,0.3-0.37,0.47c-0.04,0.06-0.1,0.11-0.14,0.17
		c-0.06,0.07-0.11,0.15-0.17,0.22c-0.06,0.07-0.12,0.14-0.16,0.22c-0.03,0.06-0.08,0.1-0.13,0.15c-0.13,0.15-0.26,0.31-0.37,0.47
		c-0.08,0.11-0.18,0.21-0.26,0.32c-0.07,0.1-0.16,0.19-0.22,0.29c-0.04,0.06-0.1,0.11-0.14,0.17c-0.11,0.14-0.23,0.28-0.34,0.43
		c0,0.01,0,0.02-0.01,0.03c-0.57,0-1.14,0-1.72,0c0.06-0.08,0.11-0.15,0.16-0.22c0.15-0.2,0.3-0.39,0.44-0.59
		c0.08-0.12,0.18-0.23,0.27-0.35c0.13-0.17,0.26-0.33,0.38-0.5c0.11-0.16,0.24-0.3,0.35-0.46c0.11-0.16,0.23-0.31,0.34-0.46
		c0.06-0.09,0.14-0.17,0.21-0.26c0.12-0.16,0.24-0.32,0.36-0.48c0.08-0.12,0.18-0.23,0.27-0.35c0.12-0.17,0.26-0.33,0.38-0.5
		c0.08-0.12,0.18-0.23,0.27-0.35c0.11-0.16,0.24-0.31,0.35-0.47c0.06-0.09,0.14-0.17,0.21-0.26c0.05-0.06,0.09-0.13,0.14-0.19
		c0.08-0.11,0.16-0.22,0.25-0.32c0.1-0.13,0.19-0.25,0.29-0.38c0.04-0.06,0.08-0.11,0.12-0.17c0.02-0.02,0.04-0.03,0.06-0.06
		c-0.03-0.02-0.05-0.03-0.06-0.05c-0.04-0.1-0.12-0.17-0.18-0.26c-0.09-0.14-0.2-0.26-0.29-0.4c-0.07-0.11-0.15-0.22-0.23-0.33
		c-0.14-0.19-0.26-0.38-0.41-0.57C59.41,5.1,59.3,4.9,59.17,4.73c-0.12-0.16-0.23-0.32-0.35-0.49c-0.15-0.2-0.29-0.41-0.44-0.62
		c-0.15-0.21-0.29-0.41-0.44-0.62c-0.13-0.19-0.27-0.38-0.41-0.57c-0.07-0.1-0.14-0.21-0.21-0.31c-0.08-0.12-0.17-0.24-0.25-0.36
		c-0.14-0.19-0.27-0.38-0.41-0.57c-0.09-0.11-0.16-0.24-0.24-0.36c-0.1-0.14-0.21-0.28-0.31-0.42c-0.08-0.11-0.15-0.22-0.23-0.34
		c0.56,0,1.12,0,1.7,0C58.71,1.59,59.83,3.13,60.98,4.64z"/>
	<path class="st0" d="M60.64,6.83c0.02,0.01,0.04,0.03,0.06,0.05c-0.03,0.02-0.05,0.04-0.06,0.06c-0.01-0.02-0.02-0.03-0.03-0.05
		C60.62,6.86,60.63,6.85,60.64,6.83z"/>
</g>
</svg>
