<?xml version="1.0" encoding="utf-8"?>
<!-- Generator: Adobe Illustrator 25.2.0, SVG Export Plug-In . SVG Version: 6.00 Build 0)  -->
<svg version="1.1" id="Layer_1" xmlns="http://www.w3.org/2000/svg" xmlns:xlink="http://www.w3.org/1999/xlink" x="0px" y="0px"
	 viewBox="0 0 18 18.1" style="enable-background:new 0 0 18 18.1;" xml:space="preserve">
<style type="text/css">
	.st0{fill:#488BCA;}
</style>
<path class="st0" d="M18,11.3c0,0-0.1,0-0.1,0c-2.9,0-5.9,0-8.8,0c-0.1,0-0.1,0-0.2,0c-0.1,0-0.1,0-0.2,0c-0.1,0-0.1,0-0.2,0
	c-0.1,0-0.2-0.1-0.3-0.1c-0.1,0-0.1-0.1-0.2-0.1c-0.2-0.1-0.3-0.2-0.5-0.3c-0.1-0.1-0.2-0.3-0.3-0.4C7.1,10.1,7,10,7,9.8
	c0-0.1-0.1-0.2-0.1-0.3c0,0,0-0.1,0-0.2c0,0,0-0.1,0-0.1c0,0,0-0.1,0-0.1c0,0,0,0,0,0c0-0.2,0-0.3,0-0.5c0,0,0,0,0-0.1
	c-0.4,0-0.8,0-1.2,0c0,0,0,0.1,0,0.1s0,0.1,0,0.1s0,0.1,0,0.1c0,0.1,0,0.2,0,0.3c0,0.1,0,0.1,0,0.1c0,0.1,0,0.1,0,0.1
	c0,0,0,0.1,0,0.2c0,0.2,0.1,0.4,0.1,0.5c0.1,0.2,0.1,0.4,0.2,0.5c0.1,0.2,0.2,0.3,0.3,0.5c0.1,0.1,0.2,0.2,0.3,0.3
	c0.2,0.1,0.3,0.3,0.5,0.4c0.1,0.1,0.2,0.1,0.3,0.1c0.2,0.1,0.3,0.1,0.5,0.2c0.1,0,0.2,0.1,0.3,0.1c0,0,0.1,0,0.1,0
	c0.1,0,0.3,0,0.4,0.1c0.2,0,0.3,0,0.5,0c0.2,0,0.3,0,0.5,0c2.7,0,5.4,0,8.1,0c0,0,0.1,0,0.1,0c0,0.1,0,0.1,0,0.1c0,1.1,0,2.2,0,3.3
	c0,0.1,0,0.1,0,0.2c0,0,0,0.1,0,0.2c0,0.1,0,0.2-0.1,0.3c0,0.1-0.1,0.2-0.2,0.4c-0.1,0.2-0.3,0.4-0.5,0.5c-0.1,0.1-0.3,0.3-0.5,0.3
	c-0.1,0.1-0.3,0.1-0.5,0.1c0,0-0.1,0-0.2,0c0,0-0.1,0-0.2,0c-0.1,0-0.1,0-0.2,0c-4.6,0-9.1,0-13.7,0c-0.1,0-0.1,0-0.2,0
	c0,0-0.1,0-0.1,0c-0.1,0-0.2,0-0.3-0.1c-0.1,0-0.1,0-0.2-0.1c-0.1,0-0.1-0.1-0.2-0.1c-0.1,0-0.1-0.1-0.2-0.1
	c-0.1-0.1-0.3-0.2-0.4-0.4c-0.1-0.1-0.2-0.2-0.3-0.4c-0.1-0.2-0.2-0.4-0.2-0.5c0,0,0-0.1,0-0.2S0,16,0,16c0-0.1,0-0.1,0-0.2
	c0-3,0-6.1,0-9.1c0,0,0.1,0,0.1,0c3,0,6,0,9,0c0.1,0,0.2,0,0.3,0c0.1,0,0.3,0.1,0.4,0.1C10,6.9,10.2,7,10.3,7.1
	c0.2,0.1,0.3,0.2,0.4,0.4C10.9,7.6,11,7.8,11.1,8c0.1,0.2,0.2,0.4,0.2,0.6c0,0.1,0,0.2,0.1,0.3c0,0.1,0,0.1,0,0.2c0,0.1,0,0.1,0,0.2
	c0,0.1,0,0.1,0,0.2c0.4,0,0.8,0,1.2,0c0,0,0-0.1,0-0.1c0-0.2,0-0.4,0-0.6c0-0.1,0-0.1,0-0.2c0-0.1,0-0.1,0-0.2c0-0.1,0-0.1,0-0.2
	c0,0,0-0.1,0-0.2c0-0.1,0-0.1-0.1-0.2s-0.1-0.1,0-0.1c-0.1-0.1-0.1-0.2-0.1-0.2C12.2,7.4,12.1,7.2,12,7c-0.1-0.1-0.2-0.3-0.3-0.4
	c-0.1-0.1-0.1-0.1-0.2-0.2s-0.1-0.1-0.2-0.2c-0.1-0.1-0.1-0.1-0.2-0.1C11,6.1,10.9,6,10.7,5.9c-0.2-0.1-0.4-0.2-0.5-0.2
	c-0.1,0-0.3-0.1-0.4-0.1c0,0-0.1,0-0.2,0c-0.1,0-0.1,0-0.2,0c-0.2,0-0.3,0-0.5,0s-0.3,0-0.5,0c-2.8,0-5.5,0-8.3,0c0,0-0.1,0-0.1,0
	c0-0.1,0-0.1,0-0.1c0-1.1,0-2.2,0-3.3C0,2,0,2,0,1.9c0,0,0-0.1,0-0.1c0-0.1,0-0.2,0.1-0.3c0-0.1,0.1-0.2,0.2-0.4
	c0.1-0.2,0.3-0.4,0.5-0.5C0.9,0.4,1,0.3,1.2,0.2c0.2-0.1,0.3-0.1,0.5-0.2c0.1,0,0.1,0,0.2,0c0.2,0,0.5,0,0.7,0c0.2,0,0.5,0,0.7,0
	c0.2,0,0.5,0,0.8,0C8,0,12,0,15.9,0c0.2,0,0.5,0.1,0.7,0.2c0,0,0.1,0,0.2,0.1c0,0,0.1,0.1,0.2,0.1c0.1,0,0.1,0.1,0.2,0.1
	c0.2,0.2,0.4,0.3,0.5,0.5c0.1,0.1,0.1,0.2,0.2,0.3c0.1,0.2,0.1,0.3,0.2,0.5c0,0,0,0.1,0,0.2c0,0.1,0,0.1,0,0.2s0,0.1,0,0.2
	C18,5.3,18,8.3,18,11.3z M9.1,10.2c0.3,0,0.5-0.1,0.8-0.3c0.2-0.2,0.3-0.4,0.3-0.7c0-0.3-0.1-0.6-0.3-0.9C9.6,8,9.4,7.9,9.1,7.9
	C8.8,7.9,8.5,8,8.2,8.2C8,8.4,7.9,8.7,7.9,9c0,0.3,0.1,0.6,0.3,0.9C8.5,10.1,8.7,10.2,9.1,10.2z"/>
</svg>
