<?xml version="1.0" encoding="utf-8"?>
<!-- Generator: Adobe Illustrator 25.2.0, SVG Export Plug-In . SVG Version: 6.00 Build 0)  -->
<svg version="1.1" id="Layer_1" xmlns="http://www.w3.org/2000/svg" xmlns:xlink="http://www.w3.org/1999/xlink" x="0px" y="0px"
	 viewBox="0 0 79.08 18.06" style="enable-background:new 0 0 79.08 18.06;" xml:space="preserve">
<style type="text/css">
	.st0{fill:#488BCA;}
	.st1{fill:#FFFFFF;}
</style>
<g>
	<path class="st0" d="M18.01,11.31c-0.05,0-0.09,0-0.14,0c-2.94,0-5.88,0-8.82,0c-0.06,0-0.11,0-0.17-0.02
		c-0.05-0.02-0.1,0.01-0.16-0.02c-0.05-0.03-0.12-0.01-0.18-0.03c-0.1-0.03-0.2-0.06-0.3-0.1c-0.07-0.02-0.14-0.05-0.21-0.09
		c-0.17-0.09-0.33-0.2-0.47-0.33c-0.13-0.13-0.25-0.27-0.35-0.42c-0.09-0.15-0.18-0.31-0.24-0.48C6.94,9.71,6.91,9.59,6.87,9.48
		C6.85,9.43,6.84,9.37,6.83,9.32C6.82,9.28,6.81,9.24,6.8,9.2C6.8,9.16,6.82,9.11,6.78,9.08c0,0,0-0.02,0-0.03
		c0-0.17-0.04-0.34-0.03-0.5c0-0.02,0-0.04,0-0.07c-0.4,0-0.8,0-1.21,0c0,0.04,0,0.09,0,0.14c0,0.05,0,0.1,0,0.15s-0.01,0.11,0,0.15
		C5.58,9.02,5.57,9.1,5.56,9.18c0,0.05,0.02,0.09,0.03,0.14C5.6,9.38,5.58,9.42,5.61,9.47c0.02,0.04,0.02,0.11,0.03,0.17
		C5.67,9.82,5.72,10,5.77,10.18C5.83,10.37,5.9,10.55,6,10.73c0.09,0.17,0.2,0.34,0.32,0.5c0.09,0.11,0.17,0.23,0.27,0.32
		c0.16,0.15,0.33,0.28,0.52,0.4c0.09,0.06,0.18,0.11,0.27,0.15c0.15,0.08,0.32,0.14,0.48,0.21c0.1,0.04,0.22,0.05,0.32,0.1
		c0.04,0.02,0.1-0.01,0.14,0.03c0.14,0,0.29,0.04,0.43,0.06c0.16,0.02,0.32,0.01,0.48,0.02c0.16,0,0.33,0,0.49,0
		c2.72,0,5.44,0,8.15,0c0.04,0,0.08,0,0.14,0c0,0.05,0,0.09,0,0.13c0,1.1,0,2.21,0,3.31c0,0.06,0.02,0.12-0.02,0.17
		c-0.03,0.05,0.02,0.12-0.03,0.17c0,0.11-0.04,0.21-0.08,0.32c-0.05,0.13-0.1,0.25-0.17,0.37c-0.12,0.21-0.27,0.39-0.45,0.55
		c-0.15,0.14-0.32,0.26-0.52,0.34c-0.15,0.06-0.31,0.13-0.48,0.15c-0.05,0.01-0.11,0.01-0.16,0.02c-0.05,0.02-0.1,0.02-0.16,0.02
		c-0.06,0-0.11,0-0.17,0c-4.56,0-9.13,0-13.69,0c-0.06,0-0.11,0.01-0.17-0.02c-0.04-0.02-0.11,0.02-0.15-0.03
		c-0.11,0-0.2-0.04-0.3-0.07c-0.07-0.02-0.13-0.05-0.2-0.08c-0.07-0.02-0.13-0.07-0.19-0.1C1,17.73,0.95,17.69,0.9,17.65
		c-0.15-0.12-0.3-0.24-0.41-0.4C0.39,17.12,0.3,17,0.23,16.86c-0.08-0.17-0.15-0.35-0.18-0.54c-0.01-0.05-0.01-0.11-0.03-0.16
		C0,16.11,0,16.05,0,16c0-0.06,0-0.11,0-0.17c0-3.03,0-6.06,0-9.1c0.03,0,0.06,0,0.1,0c3.01,0,6.03,0,9.04,0
		c0.1,0,0.21,0.03,0.31,0.04c0.15,0.02,0.29,0.07,0.43,0.12c0.15,0.05,0.28,0.12,0.42,0.21c0.17,0.11,0.31,0.24,0.44,0.39
		c0.13,0.16,0.25,0.33,0.33,0.52c0.09,0.2,0.17,0.4,0.21,0.62c0.02,0.09,0.04,0.18,0.05,0.27c0.01,0.07,0.01,0.14,0.02,0.21
		c0.02,0.07,0.02,0.15,0.02,0.22c0,0.07,0,0.15,0,0.22c0.4,0,0.8,0,1.21,0c0-0.03,0-0.06,0-0.09c0.02-0.21-0.02-0.42-0.03-0.63
		c0-0.06-0.02-0.13-0.02-0.2c-0.01-0.06-0.01-0.13-0.03-0.18c-0.02-0.06-0.01-0.12-0.04-0.18c-0.03-0.04-0.02-0.11-0.03-0.17
		c-0.01-0.05-0.04-0.1-0.05-0.15c-0.01-0.05-0.05-0.09-0.03-0.14c-0.06-0.06-0.06-0.15-0.09-0.22c-0.09-0.19-0.17-0.38-0.29-0.55
		c-0.09-0.13-0.17-0.26-0.28-0.37c-0.06-0.07-0.11-0.14-0.17-0.2c-0.06-0.06-0.12-0.1-0.18-0.16c-0.06-0.05-0.13-0.09-0.19-0.14
		c-0.14-0.11-0.29-0.2-0.45-0.28c-0.17-0.09-0.35-0.15-0.53-0.21c-0.14-0.04-0.27-0.09-0.42-0.1C9.71,5.55,9.64,5.59,9.59,5.56
		c-0.06-0.03-0.12,0-0.17-0.02C9.25,5.5,9.08,5.52,8.91,5.52c-0.17,0-0.33,0-0.5,0c-2.76,0-5.51,0-8.27,0c-0.04,0-0.08,0-0.14,0
		c0-0.05,0-0.09,0-0.13c0-1.1,0-2.2,0-3.3c0-0.06-0.01-0.11,0.02-0.17c0.02-0.04-0.02-0.11,0.03-0.15c0-0.12,0.04-0.22,0.08-0.33
		c0.05-0.12,0.1-0.24,0.17-0.36c0.12-0.21,0.27-0.39,0.45-0.54c0.14-0.12,0.29-0.23,0.45-0.3C1.35,0.16,1.5,0.1,1.66,0.06
		c0.07-0.02,0.15-0.02,0.22-0.03C2.12-0.02,2.37,0.01,2.62,0c0.24,0,0.49,0,0.73,0C3.6,0,3.85,0,4.1,0c3.94,0,7.88,0,11.82,0
		c0.25,0,0.49,0.05,0.72,0.15c0.05,0.02,0.11,0.05,0.16,0.07c0.05,0.03,0.11,0.05,0.16,0.08c0.06,0.03,0.11,0.07,0.16,0.11
		c0.18,0.15,0.35,0.3,0.48,0.49c0.07,0.11,0.15,0.21,0.2,0.33c0.07,0.16,0.14,0.32,0.16,0.5c0.01,0.05,0.01,0.11,0.02,0.16
		c0.02,0.06,0.02,0.11,0.02,0.17c0,0.06,0,0.11,0,0.17C18.01,5.26,18.01,8.28,18.01,11.31z M9.08,10.18
		c0.27,0.01,0.54-0.12,0.76-0.33c0.2-0.2,0.31-0.45,0.33-0.74c0.02-0.34-0.1-0.63-0.33-0.87C9.64,8.04,9.39,7.92,9.1,7.91
		C8.76,7.9,8.48,8.01,8.24,8.24c-0.21,0.2-0.32,0.45-0.33,0.75C7.89,9.32,8,9.61,8.23,9.84C8.45,10.06,8.72,10.18,9.08,10.18z"/>
	<g>
		<path class="st1" d="M45.7,10.79c-0.52,0-1.05,0-1.58,0c0,0.06,0,0.11,0,0.17c0,1.89,0,3.79,0,5.68c0,0.25-0.09,0.47-0.28,0.63
			c-0.13,0.11-0.27,0.21-0.44,0.26c-0.1,0.03-0.18,0.08-0.28,0.1c-0.16,0.04-0.31,0.08-0.47,0.11c-0.2,0.04-0.39,0.02-0.59,0.03
			c-0.14,0-0.27-0.04-0.4-0.06c-0.15-0.02-0.28-0.06-0.42-0.11c-0.21-0.06-0.41-0.16-0.58-0.3c-0.14-0.12-0.24-0.27-0.28-0.46
			c-0.02-0.11-0.03-0.22-0.03-0.33c0-5.09,0-10.17,0-15.26c0-0.24,0.04-0.45,0.21-0.67c0.17-0.22,0.38-0.39,0.67-0.44
			c0.1-0.02,0.2-0.03,0.29-0.03c1.81,0,3.63,0,5.44,0c0.09,0,0.18,0.03,0.28,0.03c0.1,0.01,0.2-0.02,0.29,0.01
			c0.09,0.03,0.19,0.02,0.28,0.03c0.06,0,0.12,0.02,0.17,0.03c0.05,0.01,0.1,0.01,0.16,0.03c0.08,0.03,0.17,0.02,0.26,0.04
			c0.1,0.02,0.19,0.04,0.28,0.06c0.12,0.02,0.23,0.06,0.35,0.08c0.17,0.03,0.33,0.09,0.49,0.15c0.18,0.07,0.37,0.13,0.54,0.23
			c0.24,0.14,0.49,0.27,0.7,0.45c0.08,0.06,0.15,0.13,0.23,0.2c0.05,0.05,0.12,0.08,0.16,0.14c0.18,0.23,0.39,0.44,0.54,0.7
			c0.1,0.17,0.21,0.33,0.29,0.51c0.1,0.24,0.19,0.48,0.26,0.73c0.03,0.11,0.05,0.23,0.09,0.34c0.03,0.07,0.02,0.16,0.03,0.24
			c0.03,0.13,0.01,0.28,0.04,0.41c0.05,0.21,0.02,0.42,0.03,0.64c0.01,0.21-0.01,0.42,0,0.63c0,0.1-0.03,0.18-0.04,0.28
			c-0.01,0.09,0.01,0.18-0.03,0.28c-0.03,0.08-0.02,0.17-0.03,0.26c-0.04,0.31-0.13,0.61-0.22,0.9c-0.07,0.21-0.15,0.42-0.26,0.61
			c-0.1,0.19-0.22,0.37-0.35,0.54c-0.18,0.25-0.39,0.48-0.62,0.68c-0.22,0.2-0.46,0.38-0.72,0.53c-0.13,0.08-0.27,0.15-0.41,0.22
			c-0.07,0.04-0.16,0.07-0.24,0.1c0.09,0.18,0.18,0.35,0.28,0.53c0.14,0.24,0.27,0.49,0.4,0.74c0.1,0.19,0.21,0.38,0.32,0.57
			c0.16,0.26,0.29,0.54,0.45,0.81c0.09,0.14,0.17,0.29,0.25,0.44c0.09,0.18,0.2,0.36,0.3,0.54c0.08,0.15,0.17,0.31,0.25,0.46
			c0.1,0.18,0.18,0.36,0.29,0.53c0.07,0.1,0.12,0.21,0.18,0.32c0.08,0.14,0.17,0.28,0.24,0.43c0.05,0.1,0.09,0.21,0.08,0.33
			c-0.01,0.07,0,0.15,0,0.22c0,0.12-0.04,0.23-0.09,0.34c-0.14,0.32-0.35,0.58-0.61,0.81c-0.13,0.12-0.29,0.21-0.44,0.3
			c-0.19,0.12-0.39,0.2-0.61,0.26c-0.08,0.02-0.16,0.05-0.25,0.06c-0.06,0-0.12,0.03-0.17,0.03c-0.06,0.01-0.11,0-0.17,0
			c-0.17,0.02-0.34-0.02-0.5-0.08c-0.29-0.1-0.54-0.27-0.68-0.56c-0.23-0.46-0.46-0.93-0.71-1.38c-0.2-0.37-0.37-0.75-0.57-1.11
			c-0.21-0.37-0.38-0.77-0.59-1.14c-0.22-0.39-0.39-0.8-0.61-1.18c-0.21-0.37-0.39-0.76-0.59-1.14
			C45.89,11.13,45.8,10.97,45.7,10.79z M44.12,3.4c0,1.5,0,2.99,0,4.48c0.09,0,0.18,0,0.26,0c0.29,0,0.58,0,0.87,0
			c0.29,0,0.58,0.01,0.87,0c0.29-0.01,0.57,0.02,0.86-0.03c0.14-0.02,0.28-0.06,0.41-0.09c0.2-0.05,0.39-0.14,0.56-0.26
			c0.14-0.1,0.28-0.2,0.36-0.35c0.06-0.11,0.12-0.22,0.18-0.34c0.12-0.25,0.13-0.53,0.17-0.8c0.01-0.08,0-0.17,0-0.26
			c0-0.1,0.01-0.21,0-0.31c-0.01-0.1,0.02-0.21-0.02-0.32c-0.04-0.09-0.02-0.19-0.04-0.29c-0.04-0.2-0.11-0.38-0.19-0.56
			c-0.13-0.27-0.33-0.45-0.59-0.59c-0.17-0.09-0.35-0.17-0.55-0.21C47.19,3.48,47.1,3.43,47,3.43c-0.1,0-0.2-0.04-0.31-0.04
			c-0.77,0.01-1.54,0-2.31,0C44.29,3.4,44.21,3.4,44.12,3.4z"/>
		<path class="st1" d="M31.12,3.4c0,1.36,0,2.71,0,4.07c0.06,0,0.11,0,0.17,0c1.16,0,2.32,0,3.47,0c0.38,0,0.68,0.17,0.86,0.52
			c0.06,0.12,0.13,0.23,0.16,0.36c0.02,0.09,0.06,0.17,0.06,0.27c0,0.06,0.03,0.12,0.03,0.17c0.01,0.06,0,0.13,0,0.19
			c-0.01,0.24-0.07,0.46-0.15,0.69c-0.07,0.19-0.18,0.34-0.32,0.49c-0.11,0.11-0.24,0.15-0.38,0.19c-0.12,0.04-0.24,0.03-0.36,0.03
			c-1.17,0-2.35,0-3.53,0c0,1.37,0,2.73,0,4.11c0.06,0,0.11,0,0.17,0c2.1,0,4.21,0,6.31,0c0.25,0,0.45,0.08,0.63,0.26
			c0.19,0.18,0.29,0.41,0.37,0.65c0.02,0.06,0.04,0.11,0.04,0.17c0,0.05,0.02,0.11,0.04,0.16c0.06,0.22,0.04,0.44,0.02,0.65
			c-0.02,0.25-0.08,0.49-0.19,0.72c-0.08,0.16-0.15,0.32-0.28,0.45c-0.11,0.1-0.24,0.15-0.38,0.19c-0.11,0.03-0.22,0.03-0.33,0.03
			c-2.86,0-5.73,0-8.59,0c-0.35,0-0.68-0.09-0.99-0.25c-0.1-0.05-0.2-0.1-0.28-0.18c-0.2-0.2-0.31-0.43-0.31-0.71
			c0-5.13,0-10.25,0-15.38c0-0.29,0.11-0.53,0.32-0.72c0.05-0.05,0.12-0.07,0.18-0.11c0.2-0.13,0.42-0.2,0.64-0.26
			c0.1-0.03,0.22-0.04,0.33-0.04c2.95,0,5.9,0,8.84,0c0.25,0,0.48,0.1,0.64,0.3c0.07,0.09,0.13,0.19,0.18,0.3
			c0.06,0.16,0.13,0.31,0.17,0.48c0.02,0.11,0.05,0.21,0.06,0.32c0.01,0.16,0.02,0.33,0,0.5c-0.04,0.36-0.13,0.7-0.35,1
			c-0.11,0.15-0.25,0.28-0.44,0.34c-0.09,0.03-0.19,0.05-0.29,0.05c-1.13,0-2.26,0-3.39,0C33.21,3.4,32.17,3.4,31.12,3.4z"/>
		<path class="st1" d="M70.12,6.14c0.05-0.06,0.11-0.11,0.15-0.17c0.12-0.2,0.28-0.37,0.41-0.56c0.11-0.16,0.23-0.31,0.34-0.46
			c0.16-0.21,0.32-0.43,0.48-0.64c0.15-0.2,0.29-0.39,0.44-0.59c0.21-0.28,0.43-0.55,0.62-0.85c0.11-0.17,0.26-0.31,0.37-0.48
			c0.17-0.24,0.36-0.46,0.51-0.71c0.1-0.17,0.24-0.31,0.36-0.47c0.12-0.16,0.24-0.32,0.36-0.48c0.16-0.21,0.32-0.43,0.48-0.64
			c1.48,0,2.96,0,4.44,0c-0.19,0.27-0.36,0.55-0.56,0.81c-0.14,0.19-0.27,0.38-0.4,0.57c-0.14,0.19-0.27,0.38-0.41,0.57
			c-0.11,0.13-0.19,0.28-0.29,0.43c-0.12,0.17-0.25,0.33-0.36,0.5c-0.2,0.3-0.42,0.59-0.62,0.89c-0.13,0.19-0.26,0.39-0.4,0.57
			c-0.19,0.25-0.37,0.51-0.55,0.77c-0.21,0.29-0.42,0.59-0.62,0.89c-0.1,0.14-0.2,0.27-0.3,0.41c-0.09,0.13-0.18,0.27-0.27,0.4
			c-0.14,0.19-0.27,0.38-0.41,0.57c-0.11,0.13-0.19,0.28-0.29,0.42c-0.12,0.16-0.24,0.32-0.35,0.49C73.09,8.57,72.91,8.77,72.78,9
			c-0.02,0.04-0.07,0.07-0.1,0.11c2.14,2.83,4.27,5.66,6.4,8.48c0,0,0,0.01-0.01,0.01c0,0-0.01,0.01-0.01,0.01c-1.47,0-2.93,0-4.4,0
			c-0.1-0.09-0.19-0.2-0.26-0.33c-0.05-0.08-0.12-0.14-0.18-0.22c-0.16-0.2-0.33-0.39-0.47-0.61c-0.05-0.07-0.11-0.14-0.17-0.2
			c-0.17-0.2-0.34-0.4-0.49-0.62c-0.06-0.08-0.13-0.15-0.19-0.23c-0.08-0.1-0.15-0.2-0.23-0.3c-0.08-0.09-0.15-0.18-0.22-0.29
			c-0.05-0.07-0.11-0.14-0.17-0.2c-0.17-0.21-0.34-0.41-0.5-0.63c-0.1-0.15-0.24-0.28-0.35-0.42c-0.1-0.13-0.21-0.25-0.29-0.39
			c-0.04-0.08-0.11-0.14-0.17-0.2c-0.17-0.2-0.34-0.4-0.49-0.62c-0.06-0.09-0.13-0.17-0.21-0.24c-0.06-0.06-0.07-0.16-0.16-0.18
			c-0.01-0.04,0.01-0.06,0.04-0.09c0.13-0.12,0.22-0.27,0.33-0.41c0.12-0.14,0.23-0.29,0.35-0.43c0.1-0.13,0.2-0.26,0.31-0.39
			c0.12-0.14,0.23-0.29,0.34-0.43c0.1-0.13,0.18-0.28,0.31-0.38c0.02-0.1,0.12-0.13,0.16-0.22c0.04-0.08,0.12-0.15,0.18-0.22
			c0.06-0.08,0.12-0.15,0.2-0.24C72.29,9.06,72.24,9.04,72.22,9c-0.09-0.14-0.19-0.26-0.29-0.39c-0.11-0.15-0.23-0.29-0.33-0.44
			c-0.16-0.24-0.35-0.47-0.51-0.71c-0.11-0.17-0.26-0.31-0.37-0.48c-0.18-0.27-0.38-0.53-0.58-0.78
			C70.12,6.18,70.12,6.16,70.12,6.14z"/>
		<path class="st1" d="M24.75,8.93c0,2.55,0,5.11,0,7.66c0,0.35-0.14,0.62-0.44,0.8c-0.21,0.13-0.43,0.21-0.69,0.28
			c-0.12,0.03-0.25,0.04-0.36,0.07c-0.22,0.05-0.44,0.04-0.65,0.02c-0.29-0.03-0.59-0.09-0.87-0.21c-0.15-0.06-0.29-0.14-0.42-0.23
			c-0.15-0.11-0.25-0.28-0.3-0.47c-0.03-0.12-0.03-0.24-0.03-0.36c0-5.09,0-10.17,0-15.26c0-0.27,0.1-0.52,0.32-0.69
			c0.14-0.12,0.32-0.19,0.49-0.25c0.08-0.03,0.18-0.04,0.26-0.07c0.09-0.03,0.18-0.04,0.26-0.06c0.13-0.03,0.26-0.03,0.39-0.04
			c0.14-0.01,0.28-0.02,0.41,0c0.33,0.05,0.66,0.09,0.96,0.24c0.1,0.05,0.19,0.09,0.28,0.15c0.19,0.11,0.28,0.28,0.35,0.47
			c0.01,0.03,0.03,0.07,0.03,0.11c0.01,0.04,0,0.09,0,0.14C24.75,3.79,24.75,6.36,24.75,8.93z"/>
		<path class="st1" d="M58.18,8.94c0,2.55,0,5.1,0,7.65c0,0.34-0.13,0.61-0.42,0.8c-0.18,0.11-0.49,0.23-0.7,0.28
			c-0.12,0.03-0.24,0.04-0.36,0.07c-0.22,0.05-0.44,0.04-0.65,0.02c-0.3-0.03-0.59-0.09-0.87-0.21c-0.15-0.06-0.29-0.14-0.42-0.23
			c-0.15-0.11-0.25-0.27-0.3-0.45c-0.03-0.11-0.04-0.23-0.04-0.34c0-5.1,0-10.2,0-15.29c0-0.26,0.09-0.49,0.29-0.67
			c0.12-0.11,0.27-0.17,0.41-0.24c0.1-0.05,0.21-0.07,0.32-0.11c0.11-0.03,0.22-0.05,0.33-0.07c0.13-0.03,0.26-0.03,0.4-0.04
			c0.13-0.01,0.27-0.02,0.39,0c0.17,0.03,0.34,0.04,0.51,0.09c0.16,0.04,0.32,0.08,0.47,0.15c0.1,0.04,0.19,0.1,0.28,0.15
			c0.18,0.11,0.26,0.28,0.34,0.46c0.03,0.08,0.04,0.16,0.04,0.24C58.18,3.79,58.18,6.36,58.18,8.94z"/>
		<path class="st1" d="M68.01,9.12c-2.24,2.83-4.47,5.65-6.71,8.48c-0.74,0-1.5,0-2.27,0c2.12-2.82,4.25-5.62,6.37-8.45
			c0.03-0.08-0.05-0.14-0.1-0.21c-0.1-0.14-0.21-0.28-0.31-0.42c-0.11-0.15-0.2-0.31-0.31-0.45c-0.1-0.12-0.18-0.26-0.27-0.38
			c-0.1-0.15-0.21-0.29-0.31-0.44C64,7.12,63.91,6.99,63.82,6.86c-0.1-0.15-0.21-0.29-0.31-0.44c-0.09-0.13-0.18-0.26-0.27-0.38
			c-0.1-0.15-0.21-0.29-0.31-0.44c-0.09-0.12-0.18-0.25-0.27-0.37c-0.11-0.15-0.21-0.32-0.33-0.46c-0.08-0.1-0.15-0.21-0.22-0.32
			c-0.12-0.16-0.23-0.32-0.35-0.49c-0.19-0.27-0.39-0.55-0.58-0.82C61,2.87,60.8,2.6,60.61,2.32c-0.18-0.25-0.36-0.5-0.54-0.75
			c-0.1-0.14-0.2-0.28-0.3-0.42c-0.12-0.16-0.24-0.32-0.35-0.49c-0.11-0.16-0.22-0.32-0.34-0.48c-0.02-0.03-0.03-0.06-0.05-0.1
			c0.75,0,1.5,0,2.26,0C63.53,3.08,65.76,6.09,68.01,9.12z"/>
		<path class="st1" d="M70.12,6.14c0,0.02,0,0.05,0.01,0.06c0.2,0.26,0.4,0.51,0.58,0.78c0.11,0.17,0.26,0.31,0.37,0.48
			c0.16,0.24,0.35,0.46,0.51,0.71c0.1,0.15,0.22,0.3,0.33,0.44c0.1,0.13,0.2,0.25,0.29,0.39c0.02,0.04,0.07,0.06,0.11,0.09
			c-0.07,0.09-0.13,0.17-0.2,0.24C72.07,9.41,72,9.47,71.96,9.56c-0.04,0.09-0.14,0.12-0.16,0.22c-0.13,0.11-0.21,0.26-0.31,0.38
			c-0.12,0.14-0.23,0.29-0.34,0.43c-0.1,0.13-0.2,0.26-0.31,0.39c-0.12,0.14-0.23,0.29-0.35,0.43c-0.11,0.14-0.2,0.29-0.33,0.41
			c-0.03,0.03-0.04,0.05-0.04,0.09c-0.05,0.06-0.12,0.11-0.16,0.18c-0.13,0.19-0.31,0.36-0.43,0.56c-0.05,0.08-0.12,0.14-0.18,0.22
			c-0.16,0.2-0.33,0.39-0.47,0.61c-0.05,0.07-0.11,0.14-0.17,0.2c-0.17,0.2-0.34,0.4-0.49,0.62c-0.06,0.08-0.13,0.15-0.19,0.23
			c-0.08,0.1-0.15,0.2-0.23,0.3c-0.08,0.09-0.15,0.18-0.22,0.29c-0.05,0.07-0.11,0.14-0.17,0.2c-0.17,0.21-0.34,0.41-0.5,0.63
			c-0.1,0.15-0.24,0.28-0.35,0.42c-0.1,0.13-0.21,0.25-0.29,0.39c-0.05,0.08-0.13,0.15-0.19,0.23c-0.15,0.19-0.3,0.38-0.45,0.57
			c-0.01,0.01-0.01,0.02-0.01,0.04c-0.76,0-1.51,0-2.28,0c0.07-0.1,0.14-0.2,0.21-0.29c0.19-0.26,0.4-0.52,0.58-0.78
			c0.11-0.16,0.24-0.31,0.36-0.47c0.17-0.22,0.34-0.44,0.5-0.66c0.15-0.21,0.32-0.4,0.47-0.61c0.15-0.21,0.31-0.41,0.45-0.61
			c0.09-0.12,0.18-0.23,0.27-0.35c0.16-0.21,0.32-0.42,0.47-0.64c0.11-0.16,0.24-0.31,0.36-0.47c0.16-0.23,0.35-0.43,0.5-0.66
			c0.11-0.16,0.24-0.31,0.36-0.47c0.15-0.21,0.32-0.41,0.46-0.63c0.08-0.12,0.18-0.23,0.28-0.35c0.06-0.08,0.12-0.17,0.18-0.25
			c0.11-0.14,0.22-0.29,0.33-0.43c0.13-0.17,0.26-0.34,0.38-0.51c0.05-0.08,0.11-0.15,0.17-0.22c0.03-0.02,0.05-0.04,0.09-0.07
			c-0.04-0.03-0.06-0.05-0.09-0.06c-0.05-0.13-0.16-0.23-0.23-0.35c-0.12-0.18-0.26-0.35-0.38-0.53c-0.1-0.15-0.2-0.29-0.31-0.44
			c-0.18-0.25-0.35-0.51-0.54-0.75c-0.18-0.23-0.32-0.5-0.5-0.73c-0.16-0.21-0.31-0.43-0.47-0.65c-0.2-0.27-0.39-0.55-0.58-0.82
			c-0.19-0.27-0.39-0.55-0.58-0.82c-0.18-0.25-0.36-0.5-0.54-0.75c-0.1-0.13-0.19-0.27-0.28-0.41c-0.11-0.16-0.22-0.32-0.34-0.48
			c-0.18-0.25-0.35-0.51-0.54-0.75c-0.12-0.15-0.21-0.32-0.32-0.48c-0.13-0.19-0.28-0.37-0.42-0.56c-0.1-0.14-0.2-0.29-0.3-0.45
			c0.75,0,1.49,0,2.26,0C67.11,2.08,68.59,4.13,70.12,6.14z"/>
		<path class="st1" d="M69.67,9.04c0.02,0.02,0.05,0.04,0.09,0.06c-0.03,0.03-0.06,0.05-0.09,0.07c-0.01-0.02-0.02-0.04-0.04-0.07
			C69.65,9.09,69.66,9.07,69.67,9.04z"/>
	</g>
</g>
</svg>
