<?xml version="1.0" encoding="utf-8"?>
<!-- Generator: Adobe Illustrator 25.2.0, SVG Export Plug-In . SVG Version: 6.00 Build 0)  -->
<svg version="1.1" id="Layer_1" xmlns="http://www.w3.org/2000/svg" xmlns:xlink="http://www.w3.org/1999/xlink" x="0px" y="0px"
	 viewBox="0 0 58.1 17.83" style="enable-background:new 0 0 58.1 17.83;" xml:space="preserve">
<style type="text/css">
	.st0{fill:#FFFFFF;}
</style>
<g>
	<path class="st0" d="M24.71,10.71c-0.52,0-1.05,0-1.58,0c0,0.06,0,0.11,0,0.17c0,1.89,0,3.79,0,5.68c0,0.25-0.09,0.47-0.28,0.63
		c-0.13,0.11-0.27,0.21-0.44,0.26c-0.1,0.03-0.18,0.08-0.28,0.1c-0.16,0.04-0.31,0.08-0.47,0.11c-0.2,0.04-0.39,0.02-0.59,0.03
		c-0.14,0-0.27-0.04-0.4-0.06c-0.15-0.02-0.28-0.06-0.42-0.11c-0.21-0.06-0.41-0.16-0.58-0.3c-0.14-0.12-0.24-0.27-0.28-0.46
		c-0.02-0.11-0.03-0.22-0.03-0.33c0-5.09,0-10.17,0-15.26c0-0.24,0.04-0.45,0.21-0.67c0.17-0.22,0.38-0.39,0.67-0.44
		c0.1-0.02,0.2-0.03,0.29-0.03c1.81,0,3.63,0,5.44,0c0.09,0,0.18,0.03,0.28,0.03c0.1,0.01,0.2-0.02,0.29,0.01
		c0.09,0.03,0.19,0.02,0.28,0.03c0.06,0,0.12,0.02,0.17,0.03c0.05,0.01,0.1,0.01,0.16,0.03c0.08,0.03,0.17,0.02,0.26,0.04
		c0.1,0.02,0.19,0.04,0.28,0.06c0.12,0.02,0.23,0.06,0.35,0.08c0.17,0.03,0.33,0.09,0.49,0.15c0.18,0.07,0.37,0.13,0.54,0.23
		c0.24,0.14,0.49,0.27,0.7,0.45c0.08,0.06,0.15,0.13,0.23,0.2c0.05,0.05,0.12,0.08,0.16,0.14c0.18,0.23,0.39,0.44,0.54,0.7
		c0.1,0.17,0.21,0.33,0.29,0.51c0.1,0.24,0.19,0.48,0.26,0.73c0.03,0.11,0.05,0.23,0.09,0.34c0.03,0.07,0.02,0.16,0.03,0.24
		c0.03,0.13,0.01,0.28,0.04,0.41c0.05,0.21,0.02,0.42,0.03,0.64c0.01,0.21-0.01,0.42,0,0.63c0,0.1-0.03,0.18-0.04,0.28
		c-0.01,0.09,0.01,0.18-0.03,0.28c-0.03,0.08-0.02,0.17-0.03,0.26c-0.04,0.31-0.13,0.61-0.22,0.9c-0.07,0.21-0.15,0.42-0.26,0.61
		c-0.1,0.19-0.22,0.37-0.35,0.54c-0.18,0.25-0.39,0.48-0.62,0.68c-0.22,0.2-0.46,0.38-0.72,0.53c-0.13,0.08-0.27,0.15-0.41,0.22
		c-0.07,0.04-0.16,0.07-0.24,0.1c0.09,0.18,0.18,0.35,0.28,0.53c0.14,0.24,0.27,0.49,0.4,0.74c0.1,0.19,0.21,0.38,0.32,0.57
		c0.16,0.26,0.29,0.54,0.45,0.81c0.09,0.14,0.17,0.29,0.25,0.44c0.09,0.18,0.2,0.36,0.3,0.54c0.08,0.15,0.17,0.31,0.25,0.46
		c0.1,0.18,0.18,0.36,0.29,0.53c0.07,0.1,0.12,0.21,0.18,0.32c0.08,0.14,0.17,0.28,0.24,0.43c0.05,0.1,0.09,0.21,0.08,0.33
		c-0.01,0.07,0,0.15,0,0.22c0,0.12-0.04,0.23-0.09,0.34c-0.14,0.32-0.35,0.58-0.61,0.81c-0.13,0.12-0.29,0.21-0.44,0.3
		c-0.19,0.12-0.39,0.2-0.61,0.26c-0.08,0.02-0.16,0.05-0.25,0.06c-0.06,0-0.12,0.03-0.17,0.03c-0.06,0.01-0.11,0-0.17,0
		c-0.17,0.02-0.34-0.02-0.5-0.08c-0.29-0.1-0.54-0.27-0.68-0.56c-0.23-0.46-0.46-0.93-0.71-1.38c-0.2-0.37-0.37-0.75-0.57-1.11
		c-0.21-0.37-0.38-0.77-0.59-1.14c-0.22-0.39-0.39-0.8-0.61-1.18c-0.21-0.37-0.39-0.76-0.59-1.14
		C24.9,11.05,24.81,10.89,24.71,10.71z M23.14,3.32c0,1.5,0,2.99,0,4.48c0.09,0,0.18,0,0.26,0c0.29,0,0.58,0,0.87,0
		c0.29,0,0.58,0.01,0.87,0c0.29-0.01,0.57,0.02,0.86-0.03c0.14-0.02,0.28-0.06,0.41-0.09c0.2-0.05,0.39-0.14,0.56-0.26
		c0.14-0.1,0.28-0.2,0.36-0.35c0.06-0.11,0.12-0.22,0.18-0.34c0.12-0.25,0.13-0.53,0.17-0.8c0.01-0.08,0-0.17,0-0.26
		c0-0.1,0.01-0.21,0-0.31c-0.01-0.1,0.02-0.21-0.02-0.32c-0.04-0.09-0.02-0.19-0.04-0.29c-0.04-0.2-0.11-0.38-0.19-0.56
		c-0.13-0.27-0.33-0.45-0.59-0.59c-0.17-0.09-0.35-0.17-0.55-0.21c-0.09-0.02-0.18-0.06-0.28-0.06c-0.1,0-0.2-0.04-0.31-0.04
		c-0.77,0.01-1.54,0-2.31,0C23.31,3.32,23.23,3.32,23.14,3.32z"/>
	<path class="st0" d="M10.13,3.32c0,1.36,0,2.71,0,4.07c0.06,0,0.11,0,0.17,0c1.16,0,2.32,0,3.47,0c0.38,0,0.68,0.17,0.86,0.52
		c0.06,0.12,0.13,0.23,0.16,0.36c0.02,0.09,0.06,0.17,0.06,0.27c0,0.06,0.03,0.12,0.03,0.17c0.01,0.06,0,0.13,0,0.19
		c-0.01,0.24-0.07,0.46-0.15,0.69c-0.07,0.19-0.18,0.34-0.32,0.49c-0.11,0.11-0.24,0.15-0.38,0.19c-0.12,0.04-0.24,0.03-0.36,0.03
		c-1.17,0-2.35,0-3.53,0c0,1.37,0,2.73,0,4.11c0.06,0,0.11,0,0.17,0c2.1,0,4.21,0,6.31,0c0.25,0,0.45,0.08,0.63,0.26
		c0.19,0.18,0.29,0.41,0.37,0.65c0.02,0.06,0.04,0.11,0.04,0.17c0,0.05,0.02,0.11,0.04,0.16c0.06,0.22,0.04,0.44,0.02,0.65
		c-0.02,0.25-0.08,0.49-0.19,0.72c-0.08,0.16-0.15,0.32-0.28,0.45c-0.11,0.1-0.24,0.15-0.38,0.19c-0.11,0.03-0.22,0.03-0.33,0.03
		c-2.86,0-5.73,0-8.59,0c-0.35,0-0.68-0.09-0.99-0.25c-0.1-0.05-0.2-0.1-0.28-0.18c-0.2-0.2-0.31-0.43-0.31-0.71
		c0-5.13,0-10.25,0-15.38c0-0.29,0.11-0.53,0.32-0.72C6.74,0.4,6.81,0.37,6.86,0.34c0.2-0.13,0.42-0.2,0.64-0.26
		c0.1-0.03,0.22-0.04,0.33-0.04c2.95,0,5.9,0,8.84,0c0.25,0,0.48,0.1,0.64,0.3c0.07,0.09,0.13,0.19,0.18,0.3
		c0.06,0.16,0.13,0.31,0.17,0.48c0.02,0.11,0.05,0.21,0.06,0.32c0.01,0.16,0.02,0.33,0,0.5c-0.04,0.36-0.13,0.7-0.35,1
		c-0.11,0.15-0.25,0.28-0.44,0.34c-0.09,0.03-0.19,0.05-0.29,0.05c-1.13,0-2.26,0-3.39,0C12.22,3.32,11.18,3.32,10.13,3.32z"/>
	<path class="st0" d="M49.13,6.05c0.05-0.06,0.11-0.11,0.15-0.17c0.12-0.2,0.28-0.37,0.41-0.56c0.11-0.16,0.23-0.31,0.34-0.46
		c0.16-0.21,0.32-0.43,0.48-0.64c0.15-0.2,0.29-0.39,0.44-0.59c0.21-0.28,0.43-0.55,0.62-0.85c0.11-0.17,0.26-0.31,0.37-0.48
		c0.17-0.24,0.36-0.46,0.51-0.71c0.1-0.17,0.24-0.31,0.36-0.47c0.12-0.16,0.24-0.32,0.36-0.48c0.16-0.21,0.32-0.43,0.48-0.64
		c1.48,0,2.96,0,4.44,0c-0.19,0.27-0.36,0.55-0.56,0.81C57.4,1,57.27,1.19,57.14,1.38C57,1.57,56.87,1.76,56.72,1.94
		c-0.11,0.13-0.19,0.28-0.29,0.43c-0.12,0.17-0.25,0.33-0.36,0.5c-0.2,0.3-0.42,0.59-0.62,0.89c-0.13,0.19-0.26,0.39-0.4,0.57
		c-0.19,0.25-0.37,0.51-0.55,0.77c-0.21,0.29-0.42,0.59-0.62,0.89c-0.1,0.14-0.2,0.27-0.3,0.41c-0.09,0.13-0.18,0.27-0.27,0.4
		c-0.14,0.19-0.27,0.38-0.41,0.57c-0.11,0.13-0.19,0.28-0.29,0.42c-0.12,0.16-0.24,0.32-0.35,0.49c-0.14,0.22-0.32,0.42-0.45,0.65
		c-0.02,0.04-0.07,0.07-0.1,0.11c2.14,2.83,4.27,5.66,6.4,8.48c0,0,0,0.01-0.01,0.01c0,0-0.01,0.01-0.01,0.01c-1.47,0-2.93,0-4.4,0
		c-0.1-0.09-0.19-0.2-0.26-0.33c-0.05-0.08-0.12-0.14-0.18-0.22c-0.16-0.2-0.33-0.39-0.47-0.61c-0.05-0.07-0.11-0.14-0.17-0.2
		c-0.17-0.2-0.34-0.4-0.49-0.62c-0.06-0.08-0.13-0.15-0.19-0.23c-0.08-0.1-0.15-0.2-0.23-0.3c-0.08-0.09-0.15-0.18-0.22-0.29
		c-0.05-0.07-0.11-0.14-0.17-0.2c-0.17-0.21-0.34-0.41-0.5-0.63c-0.1-0.15-0.24-0.28-0.35-0.42c-0.1-0.13-0.21-0.25-0.29-0.39
		c-0.04-0.08-0.11-0.14-0.17-0.2c-0.17-0.2-0.34-0.4-0.49-0.62c-0.06-0.09-0.13-0.17-0.21-0.24c-0.06-0.06-0.07-0.16-0.16-0.18
		c-0.01-0.04,0.01-0.06,0.04-0.09c0.13-0.12,0.22-0.27,0.33-0.41c0.12-0.14,0.23-0.29,0.35-0.43c0.1-0.13,0.2-0.26,0.31-0.39
		c0.12-0.14,0.23-0.29,0.34-0.43c0.1-0.13,0.18-0.28,0.31-0.38c0.02-0.1,0.12-0.13,0.16-0.22c0.04-0.08,0.12-0.15,0.18-0.22
		c0.06-0.08,0.12-0.15,0.2-0.24c-0.04-0.03-0.09-0.05-0.11-0.09c-0.09-0.14-0.19-0.26-0.29-0.39c-0.11-0.15-0.23-0.29-0.33-0.44
		c-0.16-0.24-0.35-0.47-0.51-0.71c-0.11-0.17-0.26-0.31-0.37-0.48c-0.18-0.27-0.38-0.53-0.58-0.78C49.14,6.1,49.14,6.07,49.13,6.05z
		"/>
	<path class="st0" d="M3.76,8.85c0,2.55,0,5.11,0,7.66c0,0.35-0.14,0.62-0.44,0.8c-0.21,0.13-0.43,0.21-0.69,0.28
		c-0.12,0.03-0.25,0.04-0.36,0.07c-0.22,0.05-0.44,0.04-0.65,0.02c-0.29-0.03-0.59-0.09-0.87-0.21c-0.15-0.06-0.29-0.14-0.42-0.23
		c-0.15-0.11-0.25-0.28-0.3-0.47C0,16.65,0,16.53,0,16.4C0,11.32,0,6.23,0,1.14c0-0.27,0.1-0.52,0.32-0.69
		C0.46,0.34,0.64,0.27,0.81,0.2c0.08-0.03,0.18-0.04,0.26-0.07C1.16,0.1,1.25,0.09,1.34,0.07C1.46,0.04,1.6,0.04,1.73,0.03
		c0.14-0.01,0.28-0.02,0.41,0C2.47,0.08,2.8,0.12,3.1,0.27c0.1,0.05,0.19,0.09,0.28,0.15C3.57,0.53,3.66,0.7,3.73,0.89
		C3.74,0.92,3.76,0.96,3.76,1c0.01,0.04,0,0.09,0,0.14C3.76,3.7,3.76,6.28,3.76,8.85z"/>
	<path class="st0" d="M37.19,8.86c0,2.55,0,5.1,0,7.65c0,0.34-0.13,0.61-0.42,0.8c-0.18,0.11-0.49,0.23-0.7,0.28
		c-0.12,0.03-0.24,0.04-0.36,0.07c-0.22,0.05-0.44,0.04-0.65,0.02c-0.3-0.03-0.59-0.09-0.87-0.21c-0.15-0.06-0.29-0.14-0.42-0.23
		c-0.15-0.11-0.25-0.27-0.3-0.45c-0.03-0.11-0.04-0.23-0.04-0.34c0-5.1,0-10.2,0-15.29c0-0.26,0.09-0.49,0.29-0.67
		c0.12-0.11,0.27-0.17,0.41-0.24c0.1-0.05,0.21-0.07,0.32-0.11c0.11-0.03,0.22-0.05,0.33-0.07c0.13-0.03,0.26-0.03,0.4-0.04
		c0.13-0.01,0.27-0.02,0.39,0c0.17,0.03,0.34,0.04,0.51,0.09c0.16,0.04,0.32,0.08,0.47,0.15c0.1,0.04,0.19,0.1,0.28,0.15
		C37,0.53,37.09,0.7,37.16,0.88c0.03,0.08,0.04,0.16,0.04,0.24C37.19,3.7,37.19,6.28,37.19,8.86z"/>
	<path class="st0" d="M47.03,9.03c-2.24,2.83-4.47,5.65-6.71,8.48c-0.74,0-1.5,0-2.27,0c2.12-2.82,4.25-5.62,6.37-8.45
		c0.03-0.08-0.05-0.14-0.1-0.21c-0.1-0.14-0.21-0.28-0.31-0.42c-0.11-0.15-0.2-0.31-0.31-0.45c-0.1-0.12-0.18-0.26-0.27-0.38
		c-0.1-0.15-0.21-0.29-0.31-0.44c-0.09-0.13-0.18-0.26-0.27-0.38c-0.1-0.15-0.21-0.29-0.31-0.44c-0.09-0.13-0.18-0.26-0.27-0.38
		c-0.1-0.15-0.21-0.29-0.31-0.44c-0.09-0.12-0.18-0.25-0.27-0.37C41.57,5,41.48,4.84,41.36,4.69c-0.08-0.1-0.15-0.21-0.22-0.32
		c-0.12-0.16-0.23-0.32-0.35-0.49c-0.19-0.27-0.39-0.55-0.58-0.82c-0.19-0.27-0.39-0.55-0.58-0.82c-0.18-0.25-0.36-0.5-0.54-0.75
		c-0.1-0.14-0.2-0.28-0.3-0.42c-0.12-0.16-0.24-0.32-0.35-0.49c-0.11-0.16-0.22-0.32-0.34-0.48c-0.02-0.03-0.03-0.06-0.05-0.1
		c0.75,0,1.5,0,2.26,0C42.54,3,44.78,6.01,47.03,9.03z"/>
	<path class="st0" d="M49.13,6.05c0,0.02,0,0.05,0.01,0.06c0.2,0.26,0.4,0.51,0.58,0.78c0.11,0.17,0.26,0.31,0.37,0.48
		c0.16,0.24,0.35,0.46,0.51,0.71c0.1,0.15,0.22,0.3,0.33,0.44c0.1,0.13,0.2,0.25,0.29,0.39c0.02,0.04,0.07,0.06,0.11,0.09
		c-0.07,0.09-0.13,0.17-0.2,0.24c-0.06,0.07-0.14,0.14-0.18,0.22c-0.04,0.09-0.14,0.12-0.16,0.22c-0.13,0.11-0.21,0.26-0.31,0.38
		c-0.12,0.14-0.23,0.29-0.34,0.43c-0.1,0.13-0.2,0.26-0.31,0.39c-0.12,0.14-0.23,0.29-0.35,0.43c-0.11,0.14-0.2,0.29-0.33,0.41
		c-0.03,0.03-0.04,0.05-0.04,0.09c-0.05,0.06-0.12,0.11-0.16,0.18c-0.13,0.19-0.31,0.36-0.43,0.56c-0.05,0.08-0.12,0.14-0.18,0.22
		c-0.16,0.2-0.33,0.39-0.47,0.61c-0.05,0.07-0.11,0.14-0.17,0.2c-0.17,0.2-0.34,0.4-0.49,0.62c-0.06,0.08-0.13,0.15-0.19,0.23
		c-0.08,0.1-0.15,0.2-0.23,0.3c-0.08,0.09-0.15,0.18-0.22,0.29c-0.05,0.07-0.11,0.14-0.17,0.2c-0.17,0.21-0.34,0.41-0.5,0.63
		c-0.1,0.15-0.24,0.28-0.35,0.42c-0.1,0.13-0.21,0.25-0.29,0.39c-0.05,0.08-0.13,0.15-0.19,0.23c-0.15,0.19-0.3,0.38-0.45,0.57
		c-0.01,0.01-0.01,0.02-0.01,0.04c-0.76,0-1.51,0-2.28,0c0.07-0.1,0.14-0.2,0.21-0.29c0.19-0.26,0.4-0.52,0.58-0.78
		c0.11-0.16,0.24-0.31,0.36-0.47c0.17-0.22,0.34-0.44,0.5-0.66c0.15-0.21,0.32-0.4,0.47-0.61c0.15-0.21,0.31-0.41,0.45-0.61
		c0.09-0.12,0.18-0.23,0.27-0.35c0.16-0.21,0.32-0.42,0.47-0.64c0.11-0.16,0.24-0.31,0.36-0.47c0.16-0.23,0.35-0.43,0.5-0.66
		c0.11-0.16,0.24-0.31,0.36-0.47c0.15-0.21,0.32-0.41,0.46-0.63c0.08-0.12,0.18-0.23,0.28-0.35c0.06-0.08,0.12-0.17,0.18-0.25
		c0.11-0.14,0.22-0.29,0.33-0.43c0.13-0.17,0.26-0.34,0.38-0.51c0.05-0.08,0.11-0.15,0.17-0.22c0.03-0.02,0.05-0.04,0.09-0.07
		C48.74,9,48.71,8.98,48.69,8.96c-0.05-0.13-0.16-0.23-0.23-0.35c-0.12-0.18-0.26-0.35-0.38-0.53c-0.1-0.15-0.2-0.29-0.31-0.44
		c-0.18-0.25-0.35-0.51-0.54-0.75c-0.18-0.23-0.32-0.5-0.5-0.73c-0.16-0.21-0.31-0.43-0.47-0.65c-0.2-0.27-0.39-0.55-0.58-0.82
		c-0.19-0.27-0.39-0.55-0.58-0.82c-0.18-0.25-0.36-0.5-0.54-0.75c-0.1-0.13-0.19-0.27-0.28-0.41c-0.11-0.16-0.22-0.32-0.34-0.48
		c-0.18-0.25-0.35-0.51-0.54-0.75c-0.12-0.15-0.21-0.32-0.32-0.48c-0.13-0.19-0.28-0.37-0.42-0.56c-0.1-0.14-0.2-0.29-0.3-0.45
		c0.75,0,1.49,0,2.26,0C46.13,2,47.61,4.04,49.13,6.05z"/>
	<path class="st0" d="M48.69,8.96c0.02,0.02,0.05,0.04,0.09,0.06c-0.03,0.03-0.06,0.05-0.09,0.07c-0.01-0.02-0.02-0.04-0.04-0.07
		C48.67,9.01,48.68,8.98,48.69,8.96z"/>
</g>
</svg>
